<svg width="45" height="17" viewBox="0 0 45 17" fill="none" xmlns="http://www.w3.org/2000/svg">
<g clip-path="url(#clip0_201_4)">
<path d="M9.33582 2.71289C9.9654 1.95491 10.2774 0.982789 10.2065 0C9.24156 0.0931352 8.35084 0.558367 7.72312 1.29708C7.41054 1.65092 7.17096 2.06304 7.01815 2.50976C6.86534 2.95648 6.8023 3.42899 6.83268 3.90015C7.31335 3.90957 7.78964 3.80723 8.22402 3.60121C8.6584 3.39518 9.039 3.09108 9.33582 2.71289ZM10.1471 4.07923C8.76198 3.99909 7.5945 4.87074 6.93162 4.87074C6.26873 4.87074 5.25956 4.12276 4.17124 4.14255C3.45863 4.16263 2.76377 4.36938 2.1561 4.74214C1.54843 5.11491 1.04923 5.64062 0.708392 6.26676C-0.775683 8.83915 0.312639 12.671 1.75714 14.7656C2.4596 15.7609 3.30058 16.9472 4.41858 16.9086C5.53658 16.87 5.88287 16.216 7.15917 16.216C8.43548 16.216 8.81145 16.9086 9.91955 16.8838C11.0277 16.8591 11.7994 15.8865 12.492 14.8061C12.9915 14.0682 13.3814 13.2617 13.6495 12.4118C12.9842 12.1173 12.4183 11.6367 12.0198 11.0279C11.6213 10.4192 11.4074 9.7082 11.4036 8.98064C11.4118 8.33507 11.5819 7.70189 11.8982 7.13908C12.2145 6.57627 12.667 6.10182 13.2142 5.7592C12.8665 5.26208 12.409 4.85176 11.8771 4.56007C11.3452 4.26838 10.7532 4.10316 10.1471 4.07725M18.9823 2.08265V4.90734H21.2381V6.77233H18.9823V13.4556C18.9823 14.4529 19.4275 14.9615 20.4169 14.9615C20.6882 14.9566 20.9591 14.9367 21.2282 14.9021V16.7819C20.7867 16.8534 20.3398 16.8865 19.8925 16.8809C17.5576 16.8809 16.6573 15.9736 16.6573 13.699V6.81685H14.8863V4.94692H16.6078V2.08463L18.9823 2.08265ZM29.1235 16.778H26.65L22.4946 4.94692H24.9582L27.8769 14.4529H27.9362L30.8549 4.94692H33.269L29.1235 16.778ZM39.9869 16.778H37.8499V11.93H33.2591V9.7949H37.84V4.94692H39.977V9.7949H44.5678V11.93H39.9869V16.778Z" fill="#6C757D"/>
</g>
<defs>
<clipPath id="clip0_201_4">
<rect width="44.8062" height="17" fill="white"/>
</clipPath>
</defs>
</svg>
