<svg width="32" height="17" viewBox="0 0 32 17" fill="none" xmlns="http://www.w3.org/2000/svg">
<path d="M14.2263 11.5186C14.2448 11.5186 14.2448 11.5186 14.2633 11.5248C14.547 11.5618 14.8245 11.6112 15.0342 11.71C15.2315 11.7964 15.3487 11.9075 15.4536 12.1051C15.6139 12.4014 15.6263 12.8149 15.4782 13.1298C15.3672 13.3643 15.1329 13.5619 14.917 13.6668C14.695 13.7779 14.473 13.8273 14.2201 13.8582C13.776 13.9075 13.295 13.815 12.9003 13.6236C12.6659 13.5063 12.376 13.3088 12.228 13.0557C12.1232 12.8705 12.1232 12.6236 12.2527 12.4446C12.4624 12.1606 12.9064 12.0989 13.2395 12.1112C13.4923 12.1236 13.9549 12.1977 14.1954 12.2841C14.2633 12.3088 14.51 12.4075 14.5531 12.4507C14.584 12.4816 14.6025 12.5248 14.5901 12.568C14.5346 12.7347 14.1214 12.8273 14.0042 12.8458C13.6835 12.8952 13.5232 12.7717 13.1593 12.6298C13.0668 12.5927 12.9496 12.5557 12.8571 12.5495C12.6906 12.531 12.4932 12.5804 12.4624 12.7594C12.4439 12.852 12.5549 12.9384 12.6351 12.9754C12.8263 13.0619 12.9866 13.0866 13.1778 13.0927C13.739 13.0989 14.3743 13.0063 14.8368 12.6791C14.8985 12.6359 14.9602 12.568 14.9602 12.4878C14.9602 12.3211 14.6703 12.2162 14.6703 12.2162C14.3619 12.0865 13.7822 12.0248 13.4923 12.0001C13.184 11.9754 12.6906 11.9322 12.5734 11.9137C12.45 11.8952 12.3205 11.8705 12.2157 11.8273C12.1108 11.7779 12.006 11.673 11.9752 11.5557C11.9197 11.3458 11.9875 11.0865 12.1047 10.9137C12.413 10.4692 13.1346 10.3026 13.6774 10.2347C14.2016 10.1668 15.0465 10.1729 15.5584 10.4445C15.6386 10.4878 15.6756 10.5248 15.6633 10.6112C15.6324 10.7717 15.5091 10.8705 15.3672 10.9199C15.213 10.9692 14.8985 10.9878 14.7628 10.9939C14.1461 11.031 13.3998 11.0125 12.8078 11.173C12.7646 11.1853 12.6844 11.21 12.6536 11.2347C12.5611 11.3334 12.8263 11.3643 12.8818 11.3767C12.9003 11.3828 12.9003 11.3828 12.9188 11.3828L14.2263 11.5186ZM10.5443 8.75935C10.5443 8.75935 10.643 8.6112 10.7293 8.49391C10.8835 8.28403 11.1611 7.99391 11.3708 7.81489C11.4324 7.75934 11.5126 7.69761 11.5126 7.69761C11.5126 7.69761 11.3954 7.70995 11.3276 7.7223C11.1672 7.75316 10.939 7.90749 10.8219 8.00625C10.6307 8.17292 10.421 8.43836 10.5135 8.67293C10.5258 8.71614 10.5443 8.75935 10.5443 8.75935ZM11.6113 9.0433C11.9135 9.02478 12.1972 8.93219 12.4624 8.79021C12.7214 8.64823 13.1038 8.36428 13.0606 8.03094C13.0483 7.926 12.9804 7.83958 12.8879 7.80255C12.7708 7.75316 12.7152 7.75934 12.5672 7.80255C12.4624 7.83341 12.413 7.85193 12.3082 7.91366C12.0122 8.0865 11.5866 8.45688 11.3584 8.75317C11.3029 8.82108 11.2536 8.90132 11.2104 8.95688C11.1857 8.98774 11.1611 9.01861 11.1672 9.03095C11.1796 9.05565 11.4941 9.05565 11.6113 9.0433ZM10.8404 9.61121C10.8095 9.64207 10.7787 9.72232 10.7417 9.78405C10.7232 9.81491 10.6923 9.85195 10.6677 9.87047C10.5875 9.92603 10.5197 9.9322 10.4456 9.8643C10.3408 9.7717 10.2791 9.62355 10.273 9.48158C10.273 9.41985 10.2791 9.35195 10.2668 9.29639C10.2483 9.20997 10.1619 9.11738 10.1126 9.03095C10.0571 8.93219 10.0139 8.75935 10.0078 8.64823C9.98926 8.29638 10.1743 7.97539 10.4086 7.7223C10.6492 7.46304 10.9637 7.25316 11.3091 7.10501C11.6298 6.96921 12.1047 6.87661 12.4624 7.00007C12.5796 7.03711 12.7399 7.13587 12.8201 7.24081C12.8386 7.25933 12.8509 7.28402 12.8694 7.29637C12.8879 7.30872 12.9249 7.30872 12.9619 7.31489C13.073 7.33341 13.2395 7.41983 13.3073 7.47538C13.443 7.59267 13.517 7.70378 13.5478 7.86428C13.6157 8.18527 13.4307 8.5433 13.221 8.75935C12.8571 9.12972 12.4994 9.38898 12.0368 9.57417C11.8333 9.65442 11.5188 9.72849 11.2844 9.70997C11.2104 9.7038 11.1364 9.68528 11.0686 9.67911C11.0315 9.67294 10.902 9.64207 10.8897 9.6359C10.865 9.61738 10.8465 9.61121 10.8404 9.61121ZM11.2536 10.3273C11.2659 10.3273 11.2906 10.3334 11.3091 10.3458C11.4694 10.4075 11.5373 10.5557 11.5804 10.7223C11.673 11.105 11.71 11.9569 11.7285 12.2902C11.7408 12.5372 11.747 12.7841 11.7593 13.031C11.7655 13.2409 11.784 13.5187 11.7408 13.71C11.7223 13.7779 11.6791 13.8643 11.6113 13.9014C11.5311 13.9508 11.3584 13.9569 11.2597 13.9322C11.0192 13.8829 10.9452 13.7285 10.9082 13.494C10.828 12.9322 10.865 11.8273 10.9144 11.3643C10.9329 11.21 10.9884 10.7162 11.0686 10.5125C11.0932 10.4507 11.1549 10.3087 11.2536 10.3273ZM4.01922 11.2655C4.01922 11.2655 3.66768 11.2902 3.42099 11.3149C3.11262 11.3458 2.52671 11.4507 2.19368 11.568C2.095 11.6051 1.88531 11.6915 1.87297 11.7964C1.85447 11.9014 1.92231 11.9878 1.99632 12.0742C2.03949 12.1236 2.28002 12.3581 2.34786 12.4137C2.63156 12.6544 3.2113 13.0186 3.63685 13.1977C3.78486 13.2594 4.02539 13.3458 4.02539 13.3458C4.02539 13.3458 4.00689 12.6544 4.01306 11.9754C4.01306 11.6174 4.01922 11.2655 4.01922 11.2655ZM10.5073 11.5372C10.5258 11.7223 10.4826 12.0742 10.4703 12.1174C10.458 12.2223 10.3778 12.4693 10.3593 12.5001C10.2915 12.6483 10.2298 12.7717 10.1619 12.8952C10.0448 13.1051 9.76723 13.4384 9.60688 13.5804C8.99631 14.1051 8.0527 14.4076 7.24477 14.5063C6.69587 14.5742 6.0668 14.5619 5.4809 14.4569C5.28354 14.4199 4.98134 14.352 4.98134 14.352C4.98134 14.352 4.98134 14.4693 4.97517 14.5557C4.969 14.5927 4.94433 14.6977 4.92583 14.7285C4.88266 14.815 4.81482 14.8582 4.71614 14.8829C4.59279 14.9076 4.46328 14.9137 4.35226 14.8643C4.16724 14.7841 4.0994 14.6113 4.06856 14.4137C4.04389 14.2532 4.01306 13.9754 4.01306 13.9754C4.01306 13.9754 3.87737 13.9075 3.76019 13.852C3.40865 13.6791 3.06945 13.4631 2.77341 13.247C2.69323 13.1853 2.34169 12.8952 2.26152 12.8211C2.04566 12.6174 1.8483 12.4075 1.70028 12.1483C1.5831 11.9446 1.55227 11.7594 1.63861 11.5433C1.76196 11.2409 2.19368 11.0125 2.48971 10.8828C2.70557 10.7841 3.39015 10.5618 3.66768 10.5248C3.80336 10.5063 4.00689 10.4692 4.01922 10.4631C4.02539 10.4569 4.02539 10.4569 4.03156 10.4507C4.03773 10.4445 4.05006 10.1421 4.04389 10.031C4.04389 9.91985 4.12407 9.21614 4.14874 9.06182C4.16107 8.98157 4.22275 8.66675 4.28442 8.58651C4.32759 8.53095 4.39543 8.53712 4.45711 8.57416C4.77781 8.77787 4.87649 9.4754 4.90116 9.82726C4.9135 10.0433 4.92583 10.3705 4.92583 10.3705C4.92583 10.3705 5.29587 10.3581 5.52407 10.3643C5.74609 10.3705 5.99279 10.4075 6.22098 10.4384C6.51702 10.4878 7.09058 10.6112 7.41746 10.7779C7.68882 10.9137 7.94168 11.1483 8.02803 11.3952C8.10204 11.6174 8.09587 11.7779 7.97869 11.9816C7.84917 12.21 7.60248 12.3828 7.34961 12.3952C7.27561 12.4014 6.99191 12.3643 6.90556 12.2964C6.87473 12.2717 6.87473 12.2223 6.8994 12.1915C6.90556 12.1791 7.04125 12.1112 7.11525 12.068C7.15226 12.0495 7.18926 12.0248 7.21393 11.9939C7.27561 11.9384 7.33728 11.8767 7.33111 11.8026C7.32495 11.71 7.2201 11.6483 7.12759 11.6112C6.67737 11.4322 5.77693 11.2841 5.34521 11.2594C5.17253 11.247 4.932 11.2409 4.932 11.2409L4.98134 13.6421C4.98134 13.6421 5.17869 13.6791 5.33905 13.7038C5.43156 13.7162 5.81393 13.7532 5.91261 13.7532C6.6897 13.7717 7.55314 13.7038 8.26239 13.3705C8.57693 13.2224 8.86063 13.0433 9.07648 12.7903C9.36018 12.4631 9.51437 12.0125 9.4712 11.5433C9.42803 11.031 9.07032 10.426 8.78045 10.0557C8.02186 9.08034 6.72054 8.27169 5.57341 7.80255C4.4016 7.32106 3.2483 7.04328 2.00865 7.00007C1.68795 6.98772 0.991034 7.00624 0.639493 7.10501C0.590154 7.11736 0.540815 7.13587 0.491476 7.14822C0.454471 7.15439 0.398965 7.17908 0.380463 7.1976C0.374295 7.20378 0.36196 7.21612 0.36196 7.21612C0.36196 7.21612 0.38663 7.22847 0.405132 7.23464C0.442137 7.25316 0.602489 7.25933 0.682665 7.27785C0.756673 7.2902 0.830682 7.32723 0.861519 7.38279C0.892356 7.43217 0.892356 7.47538 0.861519 7.51859C0.781343 7.61736 0.479141 7.59884 0.349626 7.58032C0.213943 7.55563 0.0412561 7.51859 0.0104191 7.39514C-0.0265852 7.25316 0.0412561 7.11736 0.115265 6.98772C0.263282 6.72846 0.466806 6.59883 0.775176 6.51241C1.20689 6.39513 1.75579 6.30871 2.16284 6.29636C3.08795 6.25932 3.96372 6.42599 4.86416 6.6976C5.37605 6.85192 6.0483 7.11118 6.54169 7.35193C6.89323 7.52477 7.45446 7.83341 7.76283 8.04329C7.86151 8.11119 8.44124 8.53095 8.52759 8.60502C8.71261 8.75935 8.9593 8.9754 9.13816 9.15441C9.48353 9.49392 9.90908 10.0124 10.1126 10.4322C10.1619 10.531 10.1989 10.6297 10.2668 10.7408C10.2915 10.7779 10.384 11.0125 10.3963 11.0804C10.4148 11.1483 10.4333 11.247 10.4395 11.2532C10.4703 11.2594 10.5135 11.4569 10.5073 11.5372ZM22.1575 11.0063C21.7258 11.105 20.5848 11.1606 20.5848 11.1606L20.443 11.6112C20.443 11.6112 21.0104 11.5618 21.4298 11.6051C21.4298 11.6051 21.5655 11.5865 21.5778 11.7594C21.584 11.9137 21.5655 12.0865 21.5655 12.0865C21.5655 12.0865 21.5593 12.1915 21.4113 12.2162C21.2571 12.2409 20.184 12.2841 20.184 12.2841L20.0113 12.8705C20.0113 12.8705 19.9496 13.0063 20.0914 12.9693C20.2271 12.9322 21.3496 12.7223 21.4976 12.7532C21.6518 12.7903 21.8306 13.0001 21.7751 13.1915C21.7135 13.4261 20.591 14.1421 19.9126 14.0927C19.9126 14.0927 19.5549 14.1174 19.2527 13.6298C18.969 13.1668 19.3575 12.2902 19.3575 12.2902C19.3575 12.2902 19.1787 11.8828 19.3082 11.7409C19.3082 11.7409 19.3822 11.673 19.6104 11.6544L19.8879 11.0865C19.8879 11.0865 19.5734 11.105 19.3884 10.8767C19.2157 10.6606 19.2033 10.5557 19.3329 10.5001C19.4747 10.4322 20.7822 10.1915 21.6765 10.2223C21.6765 10.2223 21.991 10.1915 22.2562 10.7347C22.25 10.7347 22.3795 10.9569 22.1575 11.0063ZM18.784 13.1977C18.6668 13.4693 18.3646 13.7594 17.9884 13.5804C17.6183 13.4014 17.0201 12.1853 17.0201 12.1853C17.0201 12.1853 16.7919 11.7347 16.7487 11.7409C16.7487 11.7409 16.6994 11.6544 16.6685 12.1483C16.6377 12.6421 16.6747 13.6051 16.4774 13.7532C16.2923 13.9075 16.0641 13.8458 15.947 13.6668C15.8421 13.494 15.7989 13.0742 15.8544 12.3458C15.9223 11.6174 16.095 10.8396 16.3108 10.5989C16.5267 10.3581 16.6994 10.531 16.7672 10.5989C16.7672 10.5989 17.0571 10.8643 17.532 11.6297L17.6183 11.7717C17.6183 11.7717 18.05 12.5001 18.0994 12.5001C18.0994 12.5001 18.1364 12.531 18.1672 12.5063C18.2104 12.494 18.1919 12.2594 18.1919 12.2594C18.1919 12.2594 18.0994 11.4631 17.7047 10.1236C17.7047 10.1236 17.643 9.95689 17.6862 9.79639C17.7293 9.6359 17.8835 9.70997 17.8835 9.70997C17.8835 9.70997 18.4941 10.0186 18.7963 11.0186C19.0985 12.0186 18.895 12.9261 18.784 13.1977ZM25.3769 12.5989C25.0994 13.0866 24.3099 14.1051 23.2615 13.8643C22.9161 14.7039 22.6262 15.5557 22.4597 16.8212C22.4597 16.8212 22.4227 17.0681 22.2192 16.9817C22.0157 16.9076 21.6826 16.5742 21.6148 16.1051C21.5408 15.4878 21.8183 14.4508 22.3734 13.2594C22.213 12.994 22.102 12.6174 22.1945 12.0742C22.1945 12.0742 22.3364 11.0742 23.3417 10.1729C23.3417 10.1729 23.465 10.068 23.5328 10.0989C23.6069 10.1297 23.576 10.4569 23.5143 10.6174C23.4527 10.7779 23.0025 11.5495 23.0025 11.5495C23.0025 11.5495 22.7249 12.0742 22.7989 12.4878C23.3232 11.6791 24.5258 10.0433 25.2659 10.5557C25.5126 10.7347 25.6298 11.1236 25.6298 11.5433C25.6298 11.9137 25.5434 12.3026 25.3769 12.5989ZM25.161 11.3149C25.161 11.3149 25.1179 10.9939 24.8033 11.3458C24.532 11.6483 24.0447 12.21 23.65 12.9693C24.0632 12.9199 24.458 12.6977 24.5813 12.5865C24.7787 12.4137 25.235 11.9384 25.161 11.3149ZM31.1496 11.2409C31.2359 11.2409 31.3038 11.3088 31.3161 11.4013V11.8026C31.3161 11.889 31.2483 11.9569 31.1619 11.9569H29.2685C29.2685 12.0557 29.2685 12.1483 29.2685 12.2285C29.2685 12.8149 29.2439 13.2964 29.1883 13.8335C29.1822 13.9137 29.1143 13.9754 29.0342 13.9754H28.6209C28.5839 13.9754 28.5408 13.9569 28.5161 13.9261C28.4853 13.8952 28.4729 13.8582 28.4791 13.815C28.5346 13.2779 28.5593 12.8026 28.5593 12.2285C28.5593 12.1421 28.5593 12.0557 28.5593 11.9569H26.6844C26.598 11.9569 26.5302 11.889 26.5302 11.8026V11.4013C26.5302 11.3149 26.598 11.247 26.6844 11.247H28.5284C28.4853 10.5989 28.4051 9.97541 28.2817 9.3396C28.2694 9.29639 28.2817 9.25935 28.3064 9.22849C28.3311 9.19762 28.3681 9.1791 28.4051 9.1791H28.8491C28.917 9.1791 28.9787 9.22849 28.991 9.29639C29.1143 9.95072 29.1945 10.5865 29.2315 11.2409H31.1496ZM28.7258 8.24082C28.7443 8.28403 28.7443 8.33342 28.7135 8.3828C28.6888 8.41984 28.6456 8.44453 28.5963 8.44453H28.1831C28.1091 8.44453 28.0474 8.40132 28.0165 8.33342C27.0729 6.09265 25.5002 4.18523 23.4835 2.82102C21.4174 1.41977 18.9998 0.679019 16.4897 0.679019C14.4174 0.679019 12.3575 1.20372 10.5443 2.18521C8.78662 3.13583 7.26327 4.51856 6.13464 6.1729C6.09763 6.22846 6.03596 6.25932 5.97429 6.25932C5.95578 6.25932 5.93111 6.25315 5.91261 6.24698L5.56724 6.12969C5.5179 6.11117 5.48706 6.08031 5.46856 6.03092C5.45623 5.98771 5.46239 5.93216 5.48706 5.89512C7.94168 2.20373 12.0492 0 16.4835 0C19.1663 0 21.7443 0.796304 23.9461 2.30867C26.0923 3.77782 27.7513 5.83339 28.7258 8.24082Z" fill="#6C757D"/>
</svg>
