<svg width="98" height="17" viewBox="0 0 98 17" fill="none" xmlns="http://www.w3.org/2000/svg">
<g clip-path="url(#clip0_201_11)">
<path d="M12.0346 16.8573H7.53162V10.4359H4.61844V16.8573H0V0.293094H4.60956V6.4747H7.52273V0.293094H12.0257V16.8573H12.0346ZM32.6755 16.9284C37.285 16.9284 41.0508 13.0915 41.0508 8.41977C41.0508 3.67699 37.285 0.00888201 32.6755 0.00888201C28.0037 0.00888201 25.6412 3.40166 25.0728 4.78719C25.0728 2.73554 23.0212 0.284212 20.6409 0.284212H12.9494V16.8573H20.108C23.0212 16.8573 25.0728 14.3705 25.0728 12.1856C25.7212 13.5356 28.0126 16.9284 32.6755 16.9284ZM19.5396 10.1961C20.2057 10.1961 20.7386 10.8445 20.7386 11.5816C20.7386 12.3543 20.2057 13.0027 19.5396 13.0027H17.2481V10.1961H19.5396ZM19.5396 3.97896C20.2057 3.97896 20.7386 4.62732 20.7386 5.3645C20.7386 6.10167 20.2057 6.75003 19.5396 6.75003H17.2481V3.97896H19.5396ZM22.5682 8.41977C23.1011 8.38425 23.9715 7.77142 24.3001 7.40727C24.1758 7.85135 24.1758 9.25465 24.3001 9.69873C23.936 9.15695 23.1011 8.51747 22.5682 8.41977ZM28.4745 8.41977C28.4745 6.08391 30.3751 4.201 32.711 4.20989C35.0557 4.22765 36.9209 6.1372 36.8942 8.48194C36.8587 10.7912 34.9936 12.6474 32.6844 12.6474C30.3574 12.6474 28.4745 10.7645 28.4745 8.41977ZM32.6755 11.7415C34.4696 11.7415 35.9794 10.2672 35.9794 8.41977C35.9794 6.5724 34.4696 5.11581 32.6755 5.11581C30.8281 5.11581 29.3537 6.5724 29.3537 8.41977C29.3537 10.2672 30.8281 11.7415 32.6755 11.7415ZM65.12 6.15496C65.0312 2.14047 62.1891 0.0177632 58.7075 0.0177632C56.7979 0.0177632 55.0749 0.65724 53.9025 1.90067C52.7302 0.65724 51.0071 0.0177632 49.0976 0.0177632C45.616 0.0177632 42.7739 2.14935 42.6851 6.16384C42.6851 6.17272 42.6851 6.18161 42.6851 6.19049V15.3474C42.6851 16.1912 43.3689 16.8662 44.2038 16.8662H45.6426C45.7847 16.8662 45.9002 16.7507 45.9002 16.6086V6.18161C45.9624 4.20101 47.3657 3.15297 49.0976 3.15297C50.8295 3.15297 52.2328 4.20101 52.295 6.18161V15.3386C52.295 16.1823 52.9788 16.8573 53.8137 16.8573H55.2525C55.3947 16.8573 55.5101 16.7418 55.5101 16.5997V6.17272C55.5723 4.19212 56.9756 3.14409 58.7075 3.14409C60.4394 3.14409 61.8427 4.19212 61.9049 6.17272V15.3297C61.9049 16.1734 62.5888 16.8484 63.4236 16.8484H64.8625C65.0046 16.8484 65.12 16.733 65.12 16.5909V6.16384C65.1289 6.17272 65.12 6.16384 65.12 6.15496ZM97.5113 0.27533H95.0688C94.3938 0.27533 93.7632 0.612832 93.3813 1.17237L90.6813 5.1691C90.3261 5.69312 89.5622 5.69312 89.207 5.1691L86.507 1.17237C86.1339 0.612832 85.4944 0.27533 84.8194 0.27533H82.377C82.226 0.27533 82.1372 0.444081 82.2171 0.568423L87.031 7.70924C87.3774 8.22438 87.3774 8.89938 87.031 9.41451L82.2171 16.5553C82.1283 16.6797 82.226 16.8484 82.377 16.8484H84.8194C85.4944 16.8484 86.125 16.5109 86.507 15.9514L89.207 11.9547C89.5622 11.4306 90.3261 11.4306 90.6813 11.9547L93.3813 15.9514C93.7544 16.5109 94.3938 16.8484 95.0688 16.8484H97.5113C97.6623 16.8484 97.7511 16.6797 97.6711 16.5553L92.8484 9.4234C92.502 8.90826 92.502 8.23326 92.8484 7.71813L97.6623 0.577305C97.7511 0.452962 97.6623 0.27533 97.5113 0.27533ZM81.1158 0.27533H79.677C78.9487 0.27533 78.3359 0.790464 78.1849 1.47435C76.9059 0.497371 75.2984 0 73.5664 0C69.3565 0 65.9371 2.93093 65.9371 8.46418C65.9371 13.9974 69.3477 16.9284 73.5664 16.9284C75.2895 16.9284 76.8793 16.4399 78.1582 15.4807C78.2293 16.2534 78.8776 16.8662 79.677 16.8662H81.1158C81.2579 16.8662 81.3734 16.7507 81.3734 16.6086V0.532897C81.3645 0.390791 81.2579 0.27533 81.1158 0.27533ZM73.5664 13.7843C71.0529 13.7843 69.0102 11.9458 69.0102 8.47306C69.0102 5.00035 71.0529 3.16186 73.5664 3.16186C76.0799 3.16186 78.1227 5.00035 78.1227 8.47306C78.1227 11.9458 76.0799 13.7843 73.5664 13.7843Z" fill="#6C757D"/>
</g>
<defs>
<clipPath id="clip0_201_11">
<rect width="97.7011" height="17" fill="white"/>
</clipPath>
</defs>
</svg>
