<svg width="52" height="17" viewBox="0 0 52 17" fill="none" xmlns="http://www.w3.org/2000/svg">
<g clip-path="url(#clip0_201_15)">
<path fill-rule="evenodd" clip-rule="evenodd" d="M8.13444 5.30484H5.49871C4.57388 5.30484 4.10883 5.55388 4.10883 5.55388V0H0V17H4.10883V10.1404C4.10883 9.53364 4.60276 9.04229 5.21045 9.04229H7.60237C8.21099 9.04229 8.70316 9.53364 8.70316 10.1404V17H12.8137V9.6092C12.8137 6.50075 10.7363 5.30484 8.13444 5.30484ZM47.6424 5.30484V12.1635C47.6424 12.7713 47.1503 13.2625 46.5417 13.2625H44.1507C43.5421 13.2625 43.0499 12.7713 43.0499 12.1635V5.30484H38.9385V12.506C38.9385 15.4496 40.8271 17 43.6185 17H47.6433V16.9787C50.2145 16.9787 51.7531 15.1546 51.7531 12.506V5.30484H47.6424ZM24.457 12.1635C24.457 12.7713 23.964 13.2625 23.3554 13.2625H20.9635C20.3549 13.2625 19.8628 12.7713 19.8628 12.1635V5.30484H15.7521V12.506C15.7521 15.4496 17.6409 17 20.4323 17H24.457V16.9787C27.0283 16.9787 28.5676 15.1546 28.5676 12.506V5.30484H24.457V12.1635ZM31.6999 17H35.8113V0H31.6999V17Z" fill="#6C757D"/>
</g>
<defs>
<clipPath id="clip0_201_15">
<rect width="51.7531" height="17" fill="white"/>
</clipPath>
</defs>
</svg>
