<svg width="41" height="17" viewBox="0 0 41 17" fill="none" xmlns="http://www.w3.org/2000/svg">
<g clip-path="url(#clip0_206_7)">
<path d="M16.1829 -0.34375C13.4275 -0.34375 10.4699 1.79233 10.4699 6.48153C10.4699 10.8547 13.0231 12.8518 15.3866 12.8518C16.2714 12.8518 17.0171 12.5737 17.6111 12.0176V12.4473C17.6111 14.5581 16.8907 15.5203 15.3361 15.5061C14.1227 15.495 13.061 14.5834 13.061 14.5834L12.6691 15.5693C12.6378 15.6481 12.5915 15.7468 12.6312 15.8726C12.6673 15.9869 12.8857 16.1221 13.0357 16.2012C13.5809 16.4887 14.1732 16.6562 15.1085 16.6562C17.3584 16.6562 19.4565 15.7083 19.5197 11.4109C19.5197 11.4109 19.545 9.02205 19.545 8.06145C19.5071 7.1135 19.2795 6.64584 18.8372 6.26666L17.0803 7.35365C17.4848 7.84658 17.5606 7.98562 17.6111 8.76926C17.6617 9.5529 17.6111 10.4124 17.6111 10.4124C17.1688 11.057 16.4736 11.4741 15.7532 11.4741C13.061 11.4741 12.7703 8.06145 12.7703 6.58264C12.7703 3.05626 14.0342 1.02131 16.2461 1.02131C17.4468 1.02131 18.4959 1.72911 18.9004 2.37372C19.09 1.86815 19.2098 1.49125 19.2922 1.22354C19.3933 0.894913 19.3064 0.678023 18.9888 0.439893C18.2952 -0.080345 17.3584 -0.34375 16.1829 -0.34375ZM0.466901 0.0325883C0.401323 0.0273764 0.34572 0.0803745 0.34572 0.161826V11.0444C0.34572 11.6005 0.255724 11.9127 -0.109298 12.3589L-0.223053 12.4979H2.62081L2.50706 12.3589C2.14832 11.9204 2.05204 11.6005 2.05204 11.0444V5.17967L4.94646 8.95885L7.84089 5.17967V11.0444C7.84089 11.6005 7.74461 11.9204 7.38587 12.3589L7.27211 12.4979H10.116L10.0022 12.3589C9.6372 11.9127 9.54721 11.6005 9.54721 11.0444V0.161826C9.54721 0.0803746 9.4916 0.0273764 9.42603 0.0325883C9.38668 0.0357154 9.34375 0.0597916 9.30706 0.111269L4.94646 6.22874L0.585869 0.111269C0.549176 0.0597917 0.506247 0.0357154 0.466901 0.0325883ZM20.7279 0.0325883C20.6623 0.0273764 20.6067 0.0803744 20.6067 0.161826V11.0444C20.6067 11.6005 20.5167 11.9127 20.1517 12.3589L20.0379 12.4979H22.8818L22.768 12.3589C22.4093 11.9204 22.313 11.6005 22.313 11.0444V5.17967L25.2074 8.95885L28.1019 5.17967V11.0444C28.1019 11.6005 28.0056 11.9204 27.6468 12.3589L27.5331 12.4979H30.3769L30.2632 12.3589C29.8982 11.9127 29.8082 11.6005 29.8082 11.0444V0.161826C29.8082 0.0803745 29.7526 0.0273764 29.687 0.0325883C29.6476 0.0357156 29.6047 0.0597917 29.568 0.111269L25.2074 6.22874L20.8468 0.111269C20.8101 0.0597916 20.7672 0.0357154 20.7279 0.0325883ZM34.6996 1.57744V5.36926H30.9078V7.10086H34.6996V10.8927H36.4312V7.10086H40.223V5.36926H36.4312V1.57744H34.6996Z" fill="white"/>
</g>
<defs>
<clipPath id="clip0_206_7">
<rect width="41" height="17" fill="white"/>
</clipPath>
</defs>
</svg>
