<svg width="74" height="17" viewBox="0 0 74 17" fill="none" xmlns="http://www.w3.org/2000/svg">
<g clip-path="url(#clip0_201_27)">
<path d="M18.8642 4.33105C18.8642 1.40767 15.7635 0 12.0798 0C8.13917 0 4.52358 1.74581 3.19649 4.45281C2.83024 5.17403 2.63992 5.97184 2.64095 6.7808C2.6242 7.48032 2.81777 8.16869 3.19649 8.757C3.7651 9.59658 4.78061 10.1242 6.27027 10.1242C8.09865 10.1242 9.54765 9.12236 9.54765 7.37648C9.54765 7.37648 9.57451 6.88958 9.00591 6.88958C8.54549 6.88958 8.42343 7.21421 8.43708 7.37648C8.50512 8.74357 7.69233 9.83996 6.24326 9.83996C4.6187 9.83996 3.94103 8.45938 3.94103 6.98418C3.94103 3.96575 6.2161 1.96233 8.58593 1.09625C9.6934 0.678043 10.8695 0.471191 12.0533 0.486762C14.7345 0.486762 16.9283 1.51563 16.9283 4.27703C16.9283 6.57764 14.9919 8.54026 12.676 8.71641L12.7707 8.40528C13.2449 6.7132 13.8271 4.85906 14.7748 3.49191C14.8293 3.41021 14.9239 3.27524 15.0323 3.14004L14.897 2.97747C14.6944 3.10042 14.4998 3.23598 14.3142 3.38343C9.87294 6.84862 9.73804 16.5938 3.81971 16.5938C3.61588 16.5938 3.41242 16.5802 3.21044 16.5531C1.97833 16.3501 1.32789 15.5243 1.32789 14.3744C1.32789 14.1442 1.40929 13.8327 1.40929 13.657C1.41866 13.3301 1.16126 13.0576 0.834339 13.048C0.831757 13.048 0.829321 13.048 0.826886 13.048H0.759362C0.231347 13.048 0.0146066 13.4671 0.00102802 14.063C-0.0394125 15.782 1.23314 16.7833 3.19708 16.9731C3.41353 16.9866 3.63027 16.9999 3.86052 16.9999C8.47804 16.9999 11.3083 13.5079 12.5137 9.27129C13.1242 9.19978 13.727 9.07307 14.3145 8.89264C16.4546 8.29651 18.8642 6.86249 18.8642 4.33105ZM62.8493 5.34612H61.2236L60.8584 6.19899L60.2216 7.63367H59.4638L59.2326 8.12102H60.0187L59.0702 10.2191C58.3941 11.6942 57.3375 13.1427 56.728 13.1427C56.5928 13.1427 56.511 13.0882 56.511 12.9533C56.511 12.8185 56.5514 12.6957 56.7008 12.3169C56.8905 11.87 57.2023 11.2205 57.4324 10.7469C57.7704 10.0566 58.3123 8.98732 58.3123 8.45945C58.3123 7.93151 57.9743 7.51183 57.3103 7.51183C56.5656 7.51183 55.8884 7.95896 55.2648 8.60793L55.6715 7.63352H54.1417L52.8954 10.4759C52.3949 11.4776 51.3786 13.1424 50.7419 13.1424C50.6067 13.1424 50.5521 13.061 50.5521 12.9258C50.5653 12.8042 50.5973 12.6854 50.647 12.5738C50.7015 12.452 51.4462 10.706 51.4462 10.706L52.8005 7.60651H51.1486L49.8347 10.6246C49.4291 11.5588 48.3998 13.1424 47.7357 13.1424C47.6201 13.1537 47.517 13.0692 47.5057 12.9532C47.5057 12.9532 47.5057 12.9532 47.5057 12.9531V12.8986C47.5057 12.7363 47.6279 12.4384 47.7228 12.2217L48.413 10.706L49.8347 7.60651H48.1971L47.871 8.31031C47.6279 8.78386 47.2212 9.33881 46.5714 9.33881C46.2596 9.33881 46.1113 9.21734 46.0437 9.09536C45.9488 8.05305 45.2848 7.4981 44.31 7.4981C42.9557 7.4981 41.9942 8.29665 41.3573 9.27136C40.9401 9.9432 40.6124 10.6666 40.3827 11.4231C39.8003 12.3845 39.1912 13.1291 38.7036 13.1291C38.5816 13.1291 38.5002 13.061 38.5002 12.8988C38.5002 12.7363 38.6628 12.3711 38.717 12.2352L39.7868 9.96143C40.0847 9.25793 40.2883 8.79766 40.2883 8.33739C40.2883 7.85004 39.9504 7.49788 39.3942 7.49788C38.6223 7.49788 37.7825 7.94487 37.1191 8.67553C37.1416 8.55952 37.1506 8.44137 37.1461 8.32337C37.1461 7.78185 36.8755 7.49751 36.3199 7.49751C35.616 7.49751 34.8848 7.91756 34.2213 8.67516L34.6547 7.61891H33.1648L31.9057 10.4621C31.31 11.8023 30.3485 13.1291 29.8066 13.1291C29.6849 13.1291 29.6036 13.0609 29.6036 12.8988C29.6036 12.6416 29.888 12.0054 29.9962 11.7483L31.662 7.9721C31.7838 7.68798 30.9847 7.51175 29.9691 7.51175C28.9264 7.51175 27.8565 8.02634 27.0713 8.6894C26.5161 9.1493 26.1098 9.37969 25.9063 9.37969C25.8399 9.39394 25.7746 9.35158 25.7602 9.28531C25.7583 9.27638 25.7574 9.26715 25.7576 9.25808C25.7576 9.02791 26.3128 8.3779 26.3128 7.87727C26.3128 7.64724 26.1911 7.49818 25.8792 7.49818C25.2837 7.49818 24.5792 8.06678 24.0647 8.6621L24.4981 7.61972H23.0358L21.7766 10.4623C21.1806 11.8024 20.1921 13.1968 19.6504 13.1968C19.5284 13.1968 19.4475 13.1292 19.4475 12.9665C19.4475 12.7094 19.7184 12.0871 19.8672 11.7618L21.5329 7.97224C21.6548 7.68813 20.8557 7.5119 19.8399 7.5119C18.3367 7.5119 16.8741 8.52705 16.1023 9.56928C15.2493 10.6924 14.6672 11.8836 14.6535 12.8584C14.6402 13.6434 15.0459 14.1305 15.8587 14.1305C16.7661 14.1305 17.4975 13.4133 17.9171 12.8717C17.8922 12.9788 17.874 13.0874 17.8625 13.1967C17.8625 13.7378 18.0793 14.1304 18.7427 14.1304C19.3249 14.1304 20.0969 13.6432 20.7199 12.8717L20.2182 14.0223H21.8024L23.3599 10.4894C23.8756 9.33925 24.458 8.74386 24.6199 8.74386C24.6571 8.73678 24.6931 8.76113 24.7004 8.79832C24.7011 8.80268 24.7016 8.80711 24.7016 8.81146C24.7016 8.93337 24.458 9.25859 24.458 9.55592C24.458 9.85325 24.6199 10.0836 25.0539 10.0836C25.3919 10.0836 25.7713 9.92114 26.11 9.70432C25.311 10.7875 24.7689 11.9244 24.7689 12.8585C24.7555 13.6437 25.1613 14.1308 25.9742 14.1308C26.8271 14.1308 27.6261 13.3186 28.0594 12.7772C28.0431 12.9029 28.0341 13.0295 28.0324 13.1562C28.0324 13.6842 28.3305 14.1308 28.9398 14.1308C29.6166 14.1308 30.1585 13.711 30.8356 12.8856L30.3341 14.0225H31.9588L33.4482 10.6521C34.0983 9.19026 34.9783 8.40491 35.4117 8.40491C35.52 8.39377 35.617 8.47244 35.6283 8.58085C35.6283 8.58099 35.6283 8.58129 35.6284 8.58144V8.6218C35.6105 8.78615 35.5647 8.94636 35.493 9.09543L33.3554 14.0359H35.021L36.5379 10.5977C37.1875 9.12266 37.9055 8.40491 38.4471 8.40491C38.6095 8.40491 38.6775 8.48668 38.6775 8.66217C38.6631 8.85072 38.6124 9.03462 38.5285 9.20428L37.0658 12.317C36.9311 12.6167 36.8487 12.9369 36.822 13.2643C36.822 13.7382 37.0792 14.1585 37.8108 14.1585C38.7594 14.1585 39.4764 13.4411 40.2886 12.3718V12.6018C40.3566 13.4545 40.8305 14.199 42.0897 14.199C43.5792 14.199 44.7851 13.1702 45.5157 11.5328C45.7919 10.9571 45.9708 10.3393 46.0444 9.70484C46.2075 9.78757 46.3898 9.8252 46.5721 9.81399C46.8182 9.81672 47.0607 9.75606 47.2765 9.63769L47.0193 10.1925C46.7205 10.8153 46.3955 11.5056 46.1393 12.088C45.977 12.4324 45.8804 12.8039 45.8548 13.1839C45.8548 13.7656 46.1797 14.1856 46.8427 14.1856C47.5057 14.1856 48.4139 13.5629 49.0638 12.6832H49.0779C49.0343 12.8651 49.0114 13.0511 49.0092 13.238C49.0092 13.7254 49.1585 14.1857 49.8356 14.1857C50.6218 14.1857 51.2302 13.6171 51.8266 12.8996L51.3251 14.0368H52.9638L54.2778 11.0589C55.0226 9.38065 55.7673 8.36565 56.4573 8.36565C56.5759 8.36145 56.6773 8.45037 56.6885 8.5686V8.60867C56.6885 8.89315 56.2818 9.66462 55.9165 10.436C55.5774 11.14 55.3201 11.681 55.1446 12.1011C54.9816 12.4549 54.8852 12.8356 54.8601 13.2242C54.8601 13.7383 55.1446 14.1309 55.7814 14.1309C56.7289 14.1309 57.6906 13.2106 58.2042 12.5201C58.0883 12.8512 58.0246 13.198 58.0155 13.5485C58.0155 14.4965 58.5835 14.9702 59.3827 14.9702C59.9137 14.9661 60.4299 14.7958 60.8591 14.4831C61.4817 14.0497 61.9833 13.4002 62.403 12.8047L62.1186 12.5337C61.726 13.0887 61.2921 13.6167 60.845 13.9416C60.6093 14.1408 60.3137 14.2552 60.0053 14.2664C59.6674 14.2664 59.4504 14.0903 59.4504 13.6576C59.4504 13.2249 59.6532 12.6422 59.9651 11.857C59.9781 11.8438 60.4251 10.842 60.845 9.88121C61.1971 9.06857 61.5493 8.28389 61.617 8.12146H62.6866L62.9035 7.63411H61.8471L62.8493 5.34612ZM16.6574 13.1561C16.4273 13.1561 16.2648 13.0749 16.2648 12.7771C16.2783 11.9784 16.9416 10.5573 17.7682 9.42013C18.3503 8.63516 19.1086 8.05335 19.9212 8.05335L18.8918 10.354C18.1199 12.0868 17.2803 13.1561 16.6574 13.1561ZM26.7868 13.1561C26.5568 13.1561 26.3943 13.0749 26.3809 12.7771C26.3944 11.9784 27.0578 10.5573 27.8841 9.42013C28.4661 8.63516 29.2246 8.05335 30.0371 8.05335L29.0077 10.354C28.2225 12.1275 27.4235 13.1561 26.7866 13.1561H26.7868ZM44.7702 8.67626C44.7298 9.55577 43.9578 11.6804 43.0506 12.9533C42.6854 13.4676 42.3735 13.6163 42.1032 13.6163C41.7236 13.6163 41.6146 13.3048 41.6691 12.8447C41.7498 12.0463 42.4138 10.1784 43.3352 8.89256C43.7549 8.31053 44.0396 8.06678 44.3644 8.06678C44.6894 8.06678 44.7843 8.33761 44.7702 8.67626ZM70.0446 7.63352L71.5362 4.19098H69.771L68.2793 7.63352H64.5274L63.9016 9.0772H67.6546L66.163 12.5197H67.9282L69.4199 9.0772H73.1717L73.7966 7.63352H70.0446Z" fill="#6C757D"/>
</g>
<defs>
<clipPath id="clip0_201_27">
<rect width="73.7966" height="17" fill="white"/>
</clipPath>
</defs>
</svg>
