<svg width="41" height="17" viewBox="0 0 41 17" fill="none" xmlns="http://www.w3.org/2000/svg">
<g clip-path="url(#clip0_205_29)">
<path d="M38.2949 7.5532C37.3658 7.07153 36.6138 6.67958 36.6138 5.93347C36.6138 5.40576 37.0647 5.07875 37.825 5.07875C38.7269 5.07875 39.5274 5.37035 40.1413 5.73514V3.81556C39.4978 3.53931 38.6148 3.30674 37.8238 3.30674C35.5808 3.30674 34.5773 4.64313 34.5773 6.08813C34.5773 7.78458 35.7201 8.59917 36.9797 9.265C38.2217 9.92139 38.6927 10.2071 38.6927 10.9154C38.6927 11.5151 38.1721 11.8587 37.3008 11.8587C36.0896 11.8587 35.2301 11.2991 34.6729 10.8505V12.8917C35.1971 13.2565 36.3198 13.6956 37.2878 13.6956C39.4648 13.6956 40.8378 12.5599 40.8378 10.7313C40.8378 8.90257 39.2263 8.03604 38.2972 7.55438L38.2949 7.5532Z" fill="white"/>
<path d="M21.6963 3.4H19.0069V13.6H21.0139V10.3558H21.4176C23.931 10.3558 25.4917 9.01944 25.4917 6.86847C25.4917 4.7175 24.0727 3.40118 21.6951 3.40118L21.6963 3.4ZM21.0139 5.1H21.6042C22.7824 5.1 23.5438 5.78118 23.5438 6.8366C23.5438 7.97937 22.8426 8.63458 21.6195 8.63458H21.0139V5.1Z" fill="white"/>
<path d="M31.8998 8.10805C32.5798 7.63111 32.9103 6.94285 32.9103 6.01021C32.9103 4.39993 31.7274 3.4 29.822 3.4H26.7089V13.6H29.9613C32.4535 13.6 33.5892 11.9992 33.5892 10.5117C33.5892 9.33465 32.9458 8.4268 31.8998 8.10687V8.10805ZM29.678 5.11771C30.4631 5.11771 30.9707 5.60646 30.9707 6.36437C30.9707 7.12229 30.4206 7.62639 29.5706 7.62639H28.7158V5.11771H29.678ZM28.7158 11.8976V9.23549H29.9861C30.9978 9.23549 31.6023 9.73014 31.6023 10.5589C31.6023 11.4478 30.9967 11.8976 29.8008 11.8976H28.7158Z" fill="white"/>
<path d="M7.31944 6.88854C7.31944 7.42569 7.75389 7.86014 8.29104 7.86014C8.8282 7.86014 9.26264 7.42569 9.26264 6.88854C9.26264 6.35139 8.8282 5.91694 8.29104 5.91694C7.75389 5.91694 7.31944 6.35139 7.31944 6.88854Z" fill="white"/>
<path fill-rule="evenodd" clip-rule="evenodd" d="M17 8.5C17 13.1951 13.1951 17 8.5 17C3.80493 17 0 13.1951 0 8.5C0 3.80493 3.80611 0 8.5 0C13.1939 0 17 3.80611 17 8.5ZM14.6897 8.58264L13.7464 8.77507V10.5187C13.7464 11.1043 13.2647 11.5718 12.6414 11.5718H12.1585V13.6H10.6061V11.5718H11.089C11.7123 11.5718 12.194 11.1043 12.194 10.5187V8.77507L13.1372 8.58264C13.3415 8.54132 13.4489 8.31465 13.3521 8.13049L10.8776 3.4H12.4301L14.9045 8.13049C15.0013 8.31583 14.8939 8.54132 14.6897 8.58264ZM9.03597 3.4L11.5104 8.13049H11.5092C11.606 8.31465 11.4986 8.54132 11.2944 8.58264L10.3511 8.77507V10.5187C10.3511 11.1043 9.86944 11.5718 9.24611 11.5718H8.76326V13.6H4.94417V11.1633C3.38701 10.6734 2.26549 9.37243 2.22417 7.63465C2.16868 5.3066 4.14611 3.4 6.47535 3.4H9.03597Z" fill="white"/>
</g>
<defs>
<clipPath id="clip0_205_29">
<rect width="41" height="17" fill="white"/>
</clipPath>
</defs>
</svg>
