<svg width="48" height="17" viewBox="0 0 48 17" fill="none" xmlns="http://www.w3.org/2000/svg">
<g clip-path="url(#clip0_201_75)">
<path d="M11.9787 8.5788C11.9787 5.18862 13.2332 3.05125 14.731 2.82515C13.2333 0.984519 10.7317 3.05176e-05 8.46025 3.05176e-05C5.95879 3.05176e-05 3.71215 1.08605 2.16449 2.80985C3.64122 3.10291 4.143 4.3423 4.143 6.25934H2.33685C2.33685 5.12733 2.1013 4.5413 1.43094 4.5413C1.13004 4.5413 0.896477 4.69458 0.758588 4.95506C0.739416 4.99718 0.71826 5.04129 0.699277 5.0853C0.647427 5.23103 0.618716 5.39942 0.618716 5.58519C0.618716 7.92959 4.46855 7.81276 4.46855 11.4173C4.46855 12.8233 3.39028 14.1352 2.17601 14.1352C3.77146 15.8781 5.95114 16.922 8.46025 16.922C10.9003 16.922 13.0973 15.8896 14.6409 14.2367C13.2179 13.8785 11.9787 11.8308 11.9787 8.5788ZM11.1741 14.164H9.23772V9.3489H7.14615V14.164H5.20598V3.05125H7.14237V7.52735H9.23772V3.05125H11.1741V14.164ZM1.67243 12.3952C0.741494 12.3952 -0.0188785 10.7597 0.000293749 8.30604C1.34282 9.51843 2.59553 9.7942 2.59553 11.2287C2.59553 11.9202 2.21256 12.3952 1.67243 12.3952ZM13.903 8.39945C13.903 6.52822 14.447 4.6569 15.441 4.6569C16.6228 4.6569 16.9216 7.54907 16.9216 8.46254C16.9216 10.4679 16.2896 12.2759 15.441 12.2759C14.422 12.2761 13.903 10.3705 13.903 8.39945ZM33.2413 3.20538H33.7031V14.0156H31.7283V4.87563H29.9222V14.0156H27.9474V4.87563H26.2734L25.0783 14.0156H23.2876L22.3451 7.16836H22.3163L21.3433 14.0156H19.6138L18.1715 3.20538H19.9624L20.6614 9.5529H20.6919L21.6324 3.20538H23.4081L24.2738 9.5529H24.3044L25.0782 3.20538H26.2465H26.4898H31.7282H33.2413ZM34.6718 3.20538H37.2995L38.1787 8.74644H38.2093L39.1363 3.20538H41.7008V14.0156H39.9406V6.09H39.91L38.5732 14.0156H37.4814L36.1599 6.09H36.1311V14.0156H34.6717L34.6718 3.20538ZM42.6712 3.20538H47.1358V4.87563H44.6459V7.63756H46.4808V9.39971H44.6459V12.3452H47.2411V14.0156H42.6711V3.20538H42.6712Z" fill="white"/>
</g>
<defs>
<clipPath id="clip0_201_75">
<rect width="47.3167" height="17" fill="white"/>
</clipPath>
</defs>
</svg>
