<svg width="60" height="17" viewBox="0 0 60 17" fill="none" xmlns="http://www.w3.org/2000/svg">
<g clip-path="url(#clip0_201_45)">
<path d="M55.8917 10.0538C55.9113 9.51829 55.8373 9.02784 55.669 8.58159C55.5007 8.13619 55.2576 7.91179 54.9423 7.91179C53.9325 7.91179 53.1012 8.45749 52.4493 9.54804C51.8942 10.4405 51.5967 11.3925 51.5585 12.4023C51.5381 12.8987 51.6273 13.3356 51.8254 13.7113C52.0421 14.1482 52.349 14.3658 52.7459 14.3658C53.6359 14.3658 54.3983 13.8414 55.0315 12.7899C55.5653 11.917 55.8518 11.0049 55.8917 10.0538ZM59.2458 10.166C59.1668 11.9841 58.4944 13.5549 57.2279 14.8784C55.9614 16.2018 54.3872 16.864 52.5079 16.864C50.9447 16.864 49.7573 16.3599 48.9464 15.3518C48.3531 14.6013 48.0258 13.6629 47.9672 12.5375C47.8669 10.8375 48.4806 9.27689 49.8074 7.85399C51.232 6.27384 53.0221 5.48334 55.1794 5.48334C56.5641 5.48334 57.613 5.94829 58.3261 6.87649C58.9993 7.72649 59.3053 8.82299 59.2458 10.166ZM13.362 8.01634C13.3033 9.30324 12.404 11.0661 10.6658 13.3033C8.8689 15.64 7.34825 16.8087 6.10385 16.8087C5.33375 16.8087 4.6818 16.0973 4.14885 14.6735C3.79355 13.3688 3.4374 12.0649 3.0821 10.7601C2.68685 9.33724 2.2627 8.62494 1.8088 8.62494C1.7102 8.62494 1.3634 8.83319 0.770947 9.24799L0.149597 8.44644C0.801547 7.87354 1.445 7.29979 2.07825 6.72519C2.94865 5.97379 3.60145 5.57769 4.0375 5.53774C5.066 5.43914 5.69925 6.14294 5.93725 7.64829C6.19395 9.27349 6.3716 10.2841 6.47105 10.6794C6.7677 12.0275 7.0941 12.7007 7.45025 12.7007C7.72735 12.7007 8.143 12.2629 8.6972 11.3891C9.25055 10.5145 9.5472 9.84894 9.58715 9.39249C9.6662 8.63769 9.36955 8.25944 8.6972 8.25944C8.38015 8.25944 8.05375 8.33169 7.71885 8.47619C8.36825 6.34779 9.60925 5.31334 11.4418 5.37199C12.8001 5.41194 13.4402 6.29339 13.362 8.01634ZM18.9388 1.63029C18.9193 2.12329 18.6719 2.59589 18.1959 3.04894C17.6621 3.56064 17.0289 3.81649 16.297 3.81649C15.1691 3.81649 14.6242 3.32434 14.6642 2.34004C14.6829 1.82834 14.9855 1.33534 15.5686 0.862739C16.1525 0.390989 16.8002 0.153839 17.5134 0.153839C17.929 0.153839 18.275 0.317039 18.5529 0.641739C18.8292 0.966439 18.9584 1.29624 18.9388 1.63029ZM19.5775 14.721C19.4665 14.8265 19.3525 14.9305 19.2355 15.0331C17.9095 16.1797 16.5843 16.7535 15.2583 16.7535C14.6438 16.7535 14.1746 16.5554 13.8482 16.1593C13.5218 15.7641 13.3679 15.2507 13.3883 14.6174C13.407 13.9655 13.6102 12.9565 13.9961 11.5914C14.382 10.2272 14.5758 9.49534 14.5758 9.39674C14.5758 8.88249 14.3973 8.62494 14.0411 8.62494C13.923 8.62494 13.5855 8.83319 13.0313 9.24799L12.3488 8.44644C12.982 7.87354 13.6153 7.29979 14.2485 6.72519C15.0994 5.97379 15.7326 5.57769 16.1491 5.53774C16.8019 5.47909 17.2813 5.67119 17.5882 6.11489C17.8942 6.55944 18.0081 7.13489 17.9299 7.84464C17.6723 9.04739 17.3952 10.5748 17.0986 12.4278C17.0782 13.2761 17.385 13.6994 18.0183 13.6994C18.2954 13.6994 18.7901 13.407 19.5024 12.8214C19.5109 12.8144 19.5194 12.8075 19.5278 12.8005C19.5735 12.3869 19.6476 11.8954 19.7489 11.3262C19.9121 10.4082 20.003 9.69339 20.0217 9.17999C20.0642 8.82554 19.9707 8.64704 19.7548 8.64704C19.6358 8.64704 19.2992 8.84764 18.745 9.24799L18.0327 8.44644C18.1322 8.36824 18.7544 7.79364 19.9027 6.72519C20.734 5.95424 21.2976 5.55814 21.5942 5.53859C22.1093 5.49864 22.5241 5.71114 22.8412 6.17609C23.1574 6.64104 23.3163 7.18079 23.3163 7.79364C23.3163 7.99169 23.2993 8.17954 23.2568 8.35804C23.5535 7.90329 23.8994 7.50634 24.2955 7.16974C25.2059 6.37924 26.225 5.93299 27.353 5.83439C28.3228 5.75534 29.0147 5.98229 29.4312 6.51694C29.767 6.95214 29.9251 7.57604 29.9055 8.38694C30.0441 8.26879 30.1928 8.13959 30.3518 8.00104C30.8057 7.46724 31.2511 7.04224 31.6863 6.72519C32.4181 6.19054 33.1814 5.89389 33.9719 5.83439C34.9222 5.75534 35.6048 5.98144 36.0204 6.51439C36.3757 6.94789 36.5347 7.56924 36.4956 8.37674C36.4752 8.92924 36.3417 9.73249 36.0944 10.7873C35.8462 11.8422 35.7238 12.4474 35.7238 12.6055C35.7034 13.0203 35.7433 13.3059 35.8419 13.4631C35.9414 13.6212 36.1777 13.6994 36.5543 13.6994C36.8314 13.6994 37.3252 13.407 38.0383 12.8205C38.6316 12.3335 39.117 11.8745 39.4936 11.4444L40.0579 12.1856C39.5037 13.2336 38.7421 14.1822 37.7723 15.0322C36.4463 16.1789 35.1203 16.7526 33.7951 16.7526C32.5082 16.7526 31.8852 16.0412 31.9251 14.6166C31.9438 13.9833 32.0679 13.2234 32.2957 12.3335C32.5227 11.4427 32.6468 10.7508 32.6663 10.2561C32.6867 9.50554 32.4581 9.12899 31.9812 9.12899C31.4653 9.12899 30.8499 9.74269 30.135 10.9692C29.3811 12.2561 28.9731 13.5022 28.9144 14.7092C28.8719 15.5609 28.957 16.2137 29.1635 16.6685C27.7831 16.7084 26.8158 16.4806 26.2641 15.9859C25.7694 15.5507 25.5433 14.8291 25.5833 13.8193C25.6003 13.186 25.6989 12.5528 25.8748 11.9195C26.0491 11.2863 26.146 10.7227 26.1655 10.2272C26.208 9.49534 25.9377 9.12899 25.3631 9.12899C24.8676 9.12899 24.3321 9.69339 23.7583 10.8213C23.1837 11.9484 22.8667 13.1265 22.8072 14.3531C22.7647 15.4623 22.8412 16.2333 23.0197 16.6685C21.6614 16.7084 20.6966 16.422 20.1263 15.81C19.8652 15.5279 19.6824 15.1649 19.5775 14.721ZM44.4507 9.05589C44.4694 8.52464 44.2527 8.25859 43.7988 8.25859C43.2055 8.25859 42.6029 8.66744 41.9909 9.48429C41.378 10.3011 41.0618 11.084 41.0422 11.832C41.0312 11.832 41.0312 11.9603 41.0422 12.2162C42.0104 11.8617 42.8502 11.3211 43.5616 10.5918C44.1346 9.96199 44.4303 9.44944 44.4507 9.05589ZM51.1887 12.155C50.6149 13.1044 49.487 14.0522 47.8049 15.0008C45.7079 16.2061 43.5795 16.8079 41.4231 16.8079C39.8208 16.8079 38.6716 16.2741 37.9797 15.2056C37.485 14.4738 37.2479 13.6034 37.2674 12.5944C37.287 10.9922 38.0001 9.46899 39.4052 8.02399C40.9479 6.44129 42.7686 5.64909 44.8664 5.64909C46.8061 5.64909 47.8346 6.43959 47.9536 8.01804C48.0326 9.02444 47.4784 10.0614 46.291 11.1273C45.0245 12.2927 43.4308 13.0322 41.5123 13.3475C41.8676 13.8414 42.4014 14.0879 43.1145 14.0879C44.5391 14.0879 46.093 13.7258 47.7751 13.0007C48.9821 12.4916 49.9324 11.9629 50.6251 11.4146L51.1887 12.155Z" fill="#6C757D"/>
</g>
<defs>
<clipPath id="clip0_201_45">
<rect width="59.5" height="17" fill="white"/>
</clipPath>
</defs>
</svg>
