<svg width="76" height="17" viewBox="0 0 76 17" fill="none" xmlns="http://www.w3.org/2000/svg">
<g clip-path="url(#clip0_201_49)">
<path d="M35.0664 15.4082C34.5873 15.0836 34.2473 14.5891 34.0464 13.9091C33.8455 13.2291 33.7527 12.3327 33.7527 11.2046V9.67456C33.7527 8.54637 33.8609 7.6191 34.0927 6.9391C34.3245 6.24365 34.68 5.7491 35.1745 5.44001C35.6691 5.13092 36.3027 4.96092 37.0909 4.96092C37.8636 4.96092 38.4973 5.11546 38.9609 5.44001C39.4245 5.76456 39.78 6.2591 39.9964 6.9391C40.2127 7.6191 40.3209 8.53092 40.3209 9.6591V11.1891C40.3209 12.3173 40.2127 13.2136 39.9964 13.8936C39.78 14.5736 39.44 15.0682 38.9609 15.3927C38.4818 15.7018 37.8327 15.8718 37.0291 15.8718C36.1945 15.8873 35.5455 15.7173 35.0664 15.4082ZM37.74 13.7546C37.8791 13.4146 37.9409 12.8427 37.9409 12.07V8.77819C37.9409 8.02092 37.8791 7.46456 37.74 7.12456C37.6009 6.7691 37.3691 6.5991 37.0445 6.5991C36.72 6.5991 36.5036 6.7691 36.3645 7.12456C36.2255 7.48001 36.1636 8.02092 36.1636 8.77819V12.07C36.1636 12.8427 36.2255 13.4146 36.3491 13.7546C36.4727 14.0946 36.7045 14.2646 37.0445 14.2646C37.3691 14.2646 37.6009 14.0946 37.74 13.7546ZM71.6164 11.2355V11.7764L71.6782 13.3064C71.7245 13.6464 71.8018 13.8936 71.9255 14.0482C72.0491 14.2027 72.25 14.28 72.5127 14.28C72.8682 14.28 73.1155 14.1409 73.2391 13.8627C73.3782 13.5846 73.44 13.1209 73.4555 12.4873L75.5109 12.6109C75.5264 12.7036 75.5264 12.8273 75.5264 12.9818C75.5264 13.9555 75.2636 14.6818 74.7227 15.1609C74.1818 15.64 73.44 15.8873 72.4664 15.8873C71.2918 15.8873 70.4727 15.5164 70.0091 14.79C69.5455 14.0636 69.2982 12.92 69.2982 11.39V9.52001C69.3507 6.89274 69.8128 4.96865 72.5282 4.96092C73.3473 4.96092 73.9655 5.11546 74.3982 5.4091C74.8309 5.70274 75.14 6.16637 75.3255 6.80001C75.5109 7.43365 75.5882 8.2991 75.5882 9.41183V11.22H71.6164V11.2355ZM71.9255 6.78456C71.8018 6.9391 71.7245 7.17092 71.6782 7.51092C71.6318 7.85092 71.6164 9.05637 71.6164 9.05637V9.81365H73.3473V9.05637C73.3473 9.81365 73.3318 7.86637 73.2855 7.51092C73.2391 7.15546 73.1618 6.90819 73.0382 6.7691C72.9145 6.63001 72.7291 6.55274 72.4818 6.55274C72.2191 6.56819 72.0336 6.64547 71.9255 6.78456ZM29.2864 11.0346L26.5818 1.26728H28.9464C28.9464 1.26728 30.0514 6.16637 30.43 8.4691H30.4918C30.9215 6.02419 32.0064 1.26728 32.0064 1.26728H34.3709L31.6355 11.0191V15.7018H29.3018V11.0346H29.2864ZM47.9864 5.16183V15.7173H46.1318L45.9309 14.4191H45.8845C45.3745 15.3927 44.6173 15.8873 43.6127 15.8873C41.7937 15.8826 41.5913 14.3418 41.5727 13.0436V5.16183H43.9527V12.9046C43.9527 13.3682 43.9991 13.7082 44.1073 13.9091C44.3267 14.3387 44.8955 14.229 45.2045 14.0173C45.383 13.8967 45.5268 13.7315 45.6218 13.5382V5.16183H47.9864ZM54.4464 3.18365H52.0818V15.7173H49.7636V3.18365H47.3991V1.26728H54.4309V3.18365H54.4464ZM68.0309 6.84637C67.8918 6.18183 67.66 5.70274 67.3355 5.39365C67.0109 5.10001 66.5782 4.94547 66.0064 4.94547C65.5715 4.94451 65.1463 5.07368 64.7855 5.31637C64.3991 5.56365 64.1209 5.88819 63.9045 6.29001H63.8891V0.726374H61.6018V15.7018H63.5645L63.8118 14.6973H63.8582C64.0472 15.0511 64.3307 15.3453 64.6773 15.5473C65.0482 15.7482 65.45 15.8564 65.8982 15.8564C66.7018 15.8564 67.2891 15.4855 67.6755 14.7436C68.0464 14.0018 68.2473 12.8427 68.2473 11.2818V9.61274C68.2473 8.43819 68.17 7.51092 68.0309 6.84637ZM65.8518 11.1582C65.8518 11.9309 65.8209 12.5336 65.7591 12.9664C65.6973 13.3991 65.5891 13.7082 65.4345 13.8936C65.28 14.0791 65.0791 14.1718 64.8318 14.1718C64.3527 14.1564 64.0807 13.94 63.8891 13.6155V7.6191C63.9664 7.32546 64.1055 7.09365 64.3064 6.90819C64.6464 6.52646 65.2275 6.52183 65.4964 6.90819C65.6355 7.09365 65.7127 7.41819 65.7745 7.86637C65.8209 8.31456 65.8518 8.94819 65.8518 9.78274V11.1582ZM60.18 5.16183V15.7173H58.3255L58.1245 14.4191H58.0782C57.5682 15.3927 56.8109 15.8873 55.8064 15.8873C53.9874 15.8826 53.7849 14.3418 53.7664 13.0436V5.16183H56.1464V12.9046C56.1464 13.3682 56.1927 13.7082 56.3009 13.9091C56.5204 14.3387 57.0891 14.229 57.3982 14.0173C57.5766 13.8967 57.7205 13.7315 57.8155 13.5382V5.16183H60.18ZM23.6918 2.70456C24.4877 5.90828 24.3038 10.9681 23.7073 14.2955C23.426 15.3349 22.614 16.1469 21.5745 16.4282C19.7045 16.9382 12.1782 16.9382 12.1782 16.9382C12.1782 16.9382 4.65182 16.9382 2.78182 16.4282C1.74235 16.1469 0.930363 15.3349 0.649088 14.2955C-0.151458 11.1056 0.0679969 6.04274 0.633633 2.72001C0.914909 1.68055 1.72689 0.868559 2.76636 0.587283C4.63636 0.0772831 12.1627 0.0618286 12.1627 0.0618286C12.1627 0.0618286 19.6891 0.0618286 21.5591 0.571829C22.5986 0.853104 23.4105 1.66509 23.6918 2.70456ZM9.76727 12.1164L16.0109 8.50001L9.76727 4.88365V12.1164Z" fill="#6C757D"/>
</g>
<defs>
<clipPath id="clip0_201_49">
<rect width="75.7273" height="17" fill="white"/>
</clipPath>
</defs>
</svg>
