<svg width="46" height="18" viewBox="0 0 46 18" fill="none" xmlns="http://www.w3.org/2000/svg">
<g clip-path="url(#clip0_201_57)">
<path d="M9.38579 2.72741C10.0187 1.96538 10.3324 0.98805 10.2611 0C9.29103 0.0936338 8.39555 0.561356 7.76447 1.30403C7.45021 1.65976 7.20935 2.07408 7.05572 2.5232C6.90209 2.97231 6.83872 3.44735 6.86925 3.92103C7.3525 3.9305 7.83134 3.82761 8.26804 3.62048C8.70475 3.41335 9.08738 3.10763 9.38579 2.72741ZM10.2014 4.10106C8.80888 4.0205 7.63516 4.89681 6.96872 4.89681C6.30229 4.89681 5.28771 4.14483 4.19357 4.16472C3.47714 4.18491 2.77856 4.39277 2.16764 4.76753C1.55672 5.14229 1.05485 5.67082 0.712186 6.3003C-0.779833 8.88647 0.314314 12.7389 1.76655 14.8446C2.47277 15.8452 3.31825 17.0379 4.44224 16.9991C5.56622 16.9603 5.91436 16.3028 7.1975 16.3028C8.48064 16.3028 8.85861 16.9991 9.97266 16.9742C11.0867 16.9493 11.8625 15.9716 12.5588 14.8854C13.0611 14.1435 13.4531 13.3327 13.7226 12.4783C13.0537 12.1822 12.4847 11.699 12.0841 11.087C11.6835 10.475 11.4684 9.76017 11.4647 9.02871C11.4729 8.37969 11.6439 7.74312 11.9619 7.17729C12.2799 6.61147 12.7348 6.13448 13.2849 5.79003C12.9354 5.29025 12.4754 4.87773 11.9406 4.58448C11.4059 4.29123 10.8108 4.12513 10.2014 4.09908M19.0839 2.0938V4.93361H21.3518V6.80858H19.0839V13.5276C19.0839 14.5303 19.5315 15.0415 20.5262 15.0415C20.799 15.0366 21.0713 15.0167 21.3418 14.9819V16.8718C20.898 16.9437 20.4487 16.9769 19.999 16.9712C17.6516 16.9712 16.7464 16.0591 16.7464 13.7723V6.85334H14.9659V4.9734H16.6967V2.09579L19.0839 2.0938ZM29.2794 16.8678H26.7927L22.615 4.9734H25.0918L28.0261 14.5303H28.0858L31.0201 4.9734H33.4471L29.2794 16.8678ZM40.201 16.8678H38.0525V11.9938H33.4372V9.84733H38.0425V4.9734H40.191V9.84733H44.8063V11.9938H40.201V16.8678Z" fill="white"/>
</g>
<defs>
<clipPath id="clip0_201_57">
<rect width="45.046" height="17.091" fill="white"/>
</clipPath>
</defs>
</svg>
