<svg width="34" height="18" viewBox="0 0 34 18" fill="none" xmlns="http://www.w3.org/2000/svg">
<g clip-path="url(#clip0_201_53)">
<path d="M10.3858 2.72741C11.0187 1.96538 11.3324 0.98805 11.2611 0C10.291 0.0936338 9.39555 0.561356 8.76447 1.30403C8.45021 1.65976 8.20935 2.07408 8.05572 2.5232C7.90209 2.97231 7.83872 3.44735 7.86925 3.92103C8.3525 3.9305 8.83134 3.82761 9.26804 3.62048C9.70475 3.41335 10.0874 3.10763 10.3858 2.72741ZM11.2014 4.10106C9.80888 4.0205 8.63516 4.89681 7.96872 4.89681C7.30229 4.89681 6.28771 4.14483 5.19357 4.16472C4.47714 4.18491 3.77856 4.39277 3.16764 4.76753C2.55672 5.14229 2.05485 5.67082 1.71219 6.3003C0.220167 8.88647 1.31431 12.7389 2.76655 14.8446C3.47277 15.8452 4.31825 17.0379 5.44224 16.9991C6.56622 16.9603 6.91436 16.3028 8.1975 16.3028C9.48064 16.3028 9.85861 16.9991 10.9727 16.9742C12.0867 16.9493 12.8625 15.9716 13.5588 14.8854C14.0611 14.1435 14.4531 13.3327 14.7226 12.4783C14.0537 12.1822 13.4847 11.699 13.0841 11.087C12.6835 10.475 12.4684 9.76017 12.4647 9.02871C12.4729 8.37969 12.6439 7.74312 12.9619 7.17729C13.2799 6.61147 13.7348 6.13448 14.2849 5.79003C13.9354 5.29025 13.4754 4.87773 12.9406 4.58448C12.4059 4.29123 11.8108 4.12513 11.2014 4.09908M20.0839 2.0938V4.93361H22.3518V6.80858H20.0839V13.5276C20.0839 14.5303 20.5315 15.0415 21.5262 15.0415C21.799 15.0366 22.0713 15.0167 22.3418 14.9819V16.8718C21.898 16.9437 21.4487 16.9769 20.999 16.9712C18.6516 16.9712 17.7464 16.0591 17.7464 13.7723V6.85334H15.9659V4.9734H17.6967V2.09579L20.0839 2.0938ZM30.2794 16.8678H27.7927L23.615 4.9734H26.0918L29.0261 14.5303H29.0858L32.0201 4.9734H34.4471L30.2794 16.8678Z" fill="white"/>
</g>
<defs>
<clipPath id="clip0_201_53">
<rect width="33.626" height="17.091" fill="white"/>
</clipPath>
</defs>
</svg>
