<?xml version="1.0" encoding="UTF-8"?>
<svg width="508px" height="277px" viewBox="0 0 508 277" version="1.1" xmlns="http://www.w3.org/2000/svg" xmlns:xlink="http://www.w3.org/1999/xlink">
    <!-- Generator: Sketch 50.2 (55047) - http://www.bohemiancoding.com/sketch -->
    <title>Disney+_logo</title>
    <desc>Created with Sketch.</desc>
    <defs></defs>
    <g id="Page-1" stroke="none" stroke-width="1" fill="none" fill-rule="evenodd">
        <g id="Disney+_logo" fill="currentColor" fill-rule="nonzero">
            <path d="M230.7,187.4 C231,187.4 231,187.4 231.3,187.5 C235.9,188.1 240.4,188.9 243.8,190.5 C247,191.9 248.9,193.7 250.6,196.9 C253.2,201.7 253.4,208.4 251,213.5 C249.2,217.3 245.4,220.5 241.9,222.2 C238.3,224 234.7,224.8 230.6,225.3 C223.4,226.1 215.6,224.6 209.2,221.5 C205.4,219.6 200.7,216.4 198.3,212.3 C196.6,209.3 196.6,205.3 198.7,202.4 C202.1,197.8 209.3,196.8 214.7,197 C218.8,197.2 226.3,198.4 230.2,199.8 C231.3,200.2 235.3,201.8 236,202.5 C236.5,203 236.8,203.7 236.6,204.4 C235.7,207.1 229,208.6 227.1,208.9 C221.9,209.7 219.3,207.7 213.4,205.4 C211.9,204.8 210,204.2 208.5,204.1 C205.8,203.8 202.6,204.6 202.1,207.5 C201.8,209 203.6,210.4 204.9,211 C208,212.4 210.6,212.8 213.7,212.9 C222.8,213 233.1,211.5 240.6,206.2 C241.6,205.5 242.6,204.4 242.6,203.1 C242.6,200.4 237.9,198.7 237.9,198.7 C232.9,196.6 223.5,195.6 218.8,195.2 C213.8,194.8 205.8,194.1 203.9,193.8 C201.9,193.5 199.8,193.1 198.1,192.4 C196.4,191.6 194.7,189.9 194.2,188 C193.3,184.6 194.4,180.4 196.3,177.6 C201.3,170.4 213,167.7 221.8,166.6 C230.3,165.5 244,165.6 252.3,170 C253.6,170.7 254.2,171.3 254,172.7 C253.5,175.3 251.5,176.9 249.2,177.7 C246.7,178.5 241.6,178.8 239.4,178.9 C229.4,179.5 217.3,179.2 207.7,181.8 C207,182 205.7,182.4 205.2,182.8 C203.7,184.4 208,184.9 208.9,185.1 C209.2,185.2 209.2,185.2 209.5,185.2 L230.7,187.4 Z M171,142.7 C171,142.7 172.6,140.3 174,138.4 C176.5,135 181,130.3 184.4,127.4 C185.4,126.5 186.7,125.5 186.7,125.5 C186.7,125.5 184.8,125.7 183.7,125.9 C181.1,126.4 177.4,128.9 175.5,130.5 C172.4,133.2 169,137.5 170.5,141.3 C170.7,142 171,142.7 171,142.7 Z M188.3,147.3 C193.2,147 197.8,145.5 202.1,143.2 C206.3,140.9 212.5,136.3 211.8,130.9 C211.6,129.2 210.5,127.8 209,127.2 C207.1,126.4 206.2,126.5 203.8,127.2 C202.1,127.7 201.3,128 199.6,129 C194.8,131.8 187.9,137.8 184.2,142.6 C183.3,143.7 182.5,145 181.8,145.9 C181.4,146.4 181,146.9 181.1,147.1 C181.3,147.5 186.4,147.5 188.3,147.3 Z M175.8,156.5 C175.3,157 174.8,158.3 174.2,159.3 C173.9,159.8 173.4,160.4 173,160.7 C171.7,161.6 170.6,161.7 169.4,160.6 C167.7,159.1 166.7,156.7 166.6,154.4 C166.6,153.4 166.7,152.3 166.5,151.4 C166.2,150 164.8,148.5 164,147.1 C163.1,145.5 162.4,142.7 162.3,140.9 C162,135.2 165,130 168.8,125.9 C172.7,121.7 177.8,118.3 183.4,115.9 C188.6,113.7 196.3,112.2 202.1,114.2 C204,114.8 206.6,116.4 207.9,118.1 C208.2,118.4 208.4,118.8 208.7,119 C209,119.2 209.6,119.2 210.2,119.3 C212,119.6 214.7,121 215.8,121.9 C218,123.8 219.2,125.6 219.7,128.2 C220.8,133.4 217.8,139.2 214.4,142.7 C208.5,148.7 202.7,152.9 195.2,155.9 C191.9,157.2 186.8,158.4 183,158.1 C181.8,158 180.6,157.7 179.5,157.6 C178.9,157.5 176.8,157 176.6,156.9 C176.2,156.6 175.9,156.5 175.8,156.5 Z M182.5,168.1 C182.7,168.1 183.1,168.2 183.4,168.4 C186,169.4 187.1,171.8 187.8,174.5 C189.3,180.7 189.9,194.5 190.2,199.9 C190.4,203.9 190.5,207.9 190.7,211.9 C190.8,215.3 191.1,219.8 190.4,222.9 C190.1,224 189.4,225.4 188.3,226 C187,226.8 184.2,226.9 182.6,226.5 C178.7,225.7 177.5,223.2 176.9,219.4 C175.6,210.3 176.2,192.4 177,184.9 C177.3,182.4 178.2,174.4 179.5,171.1 C179.9,170.1 180.9,167.8 182.5,168.1 Z M65.2,183.3 C65.2,183.3 59.5,183.7 55.5,184.1 C50.5,184.6 41,186.3 35.6,188.2 C34,188.8 30.6,190.2 30.4,191.9 C30.1,193.6 31.2,195 32.4,196.4 C33.1,197.2 37,201 38.1,201.9 C42.7,205.8 52.1,211.7 59,214.6 C61.4,215.6 65.3,217 65.3,217 C65.3,217 65,205.8 65.1,194.8 C65.1,189 65.2,183.3 65.2,183.3 Z M170.4,187.7 C170.7,190.7 170,196.4 169.8,197.1 C169.6,198.8 168.3,202.8 168,203.3 C166.9,205.7 165.9,207.7 164.8,209.7 C162.9,213.1 158.4,218.5 155.8,220.8 C145.9,229.3 130.6,234.2 117.5,235.8 C108.6,236.9 98.4,236.7 88.9,235 C85.7,234.4 80.8,233.3 80.8,233.3 C80.8,233.3 80.8,235.2 80.7,236.6 C80.6,237.2 80.2,238.9 79.9,239.4 C79.2,240.8 78.1,241.5 76.5,241.9 C74.5,242.3 72.4,242.4 70.6,241.6 C67.6,240.3 66.5,237.5 66,234.3 C65.6,231.7 65.1,227.2 65.1,227.2 C65.1,227.2 62.9,226.1 61,225.2 C55.3,222.4 49.8,218.9 45,215.4 C43.7,214.4 38,209.7 36.7,208.5 C33.2,205.2 30,201.8 27.6,197.6 C25.7,194.3 25.2,191.3 26.6,187.8 C28.6,182.9 35.6,179.2 40.4,177.1 C43.9,175.5 55,171.9 59.5,171.3 C61.7,171 65,170.4 65.2,170.3 C65.3,170.2 65.3,170.2 65.4,170.1 C65.5,170 65.7,165.1 65.6,163.3 C65.6,161.5 66.9,150.1 67.3,147.6 C67.5,146.3 68.5,141.2 69.5,139.9 C70.2,139 71.3,139.1 72.3,139.7 C77.5,143 79.1,154.3 79.5,160 C79.7,163.5 79.9,168.8 79.9,168.8 C79.9,168.8 85.9,168.6 89.6,168.7 C93.2,168.8 97.2,169.4 100.9,169.9 C105.7,170.7 115,172.7 120.3,175.4 C124.7,177.6 128.8,181.4 130.2,185.4 C131.4,189 131.3,191.6 129.4,194.9 C127.3,198.6 123.3,201.4 119.2,201.6 C118,201.7 113.4,201.1 112,200 C111.5,199.6 111.5,198.8 111.9,198.3 C112,198.1 114.2,197 115.4,196.3 C116,196 116.6,195.6 117,195.1 C118,194.2 119,193.2 118.9,192 C118.8,190.5 117.1,189.5 115.6,188.9 C108.3,186 93.7,183.6 86.7,183.2 C83.9,183 80,182.9 80,182.9 L80.8,221.8 C80.8,221.8 84,222.4 86.6,222.8 C88.1,223 94.3,223.6 95.9,223.6 C108.5,223.9 122.5,222.8 134,217.4 C139.1,215 143.7,212.1 147.2,208 C151.8,202.7 154.3,195.4 153.6,187.8 C152.9,179.5 147.1,169.7 142.4,163.7 C130.1,147.9 109,134.8 90.4,127.2 C71.4,119.4 52.7,114.9 32.6,114.2 C27.4,114 16.1,114.3 10.4,115.9 C9.6,116.1 8.8,116.4 8,116.6 C7.4,116.7 6.5,117.1 6.2,117.4 C6.1,117.5 5.9,117.7 5.9,117.7 C5.9,117.7 6.3,117.9 6.6,118 C7.2,118.3 9.8,118.4 11.1,118.7 C12.3,118.9 13.5,119.5 14,120.4 C14.5,121.2 14.5,121.9 14,122.6 C12.7,124.2 7.8,123.9 5.7,123.6 C3.5,123.2 0.7,122.6 0.2,120.6 C-0.4,118.3 0.7,116.1 1.9,114 C4.3,109.8 7.6,107.7 12.6,106.3 C19.6,104.4 28.5,103 35.1,102.8 C50.1,102.2 64.3,104.9 78.9,109.3 C87.2,111.8 98.1,116 106.1,119.9 C111.8,122.7 120.9,127.7 125.9,131.1 C127.5,132.2 136.9,139 138.3,140.2 C141.3,142.7 145.3,146.2 148.2,149.1 C153.8,154.6 160.7,163 164,169.8 C164.8,171.4 165.4,173 166.5,174.8 C166.9,175.4 168.4,179.2 168.6,180.3 C168.9,181.4 169.2,183 169.3,183.1 C169.8,183.2 170.5,186.4 170.4,187.7 Z M359.3,179.1 C352.3,180.7 333.8,181.6 333.8,181.6 L331.5,188.9 C331.5,188.9 340.7,188.1 347.5,188.8 C347.5,188.8 349.7,188.5 349.9,191.3 C350,193.8 349.7,196.6 349.7,196.6 C349.7,196.6 349.6,198.3 347.2,198.7 C344.7,199.1 327.3,199.8 327.3,199.8 L324.5,209.3 C324.5,209.3 323.5,211.5 325.8,210.9 C328,210.3 346.2,206.9 348.6,207.4 C351.1,208 354,211.4 353.1,214.5 C352.1,218.3 333.9,229.9 322.9,229.1 C322.9,229.1 317.1,229.5 312.2,221.6 C307.6,214.1 313.9,199.9 313.9,199.9 C313.9,199.9 311,193.3 313.1,191 C313.1,191 314.3,189.9 318,189.6 L322.5,180.4 C322.5,180.4 317.4,180.7 314.4,177 C311.6,173.5 311.4,171.8 313.5,170.9 C315.8,169.8 337,165.9 351.5,166.4 C351.5,166.4 356.6,165.9 360.9,174.7 C360.8,174.7 362.9,178.3 359.3,179.1 Z M304.6,214.6 C302.7,219 297.8,223.7 291.7,220.8 C285.7,217.9 276,198.2 276,198.2 C276,198.2 272.3,190.9 271.6,191 C271.6,191 270.8,189.6 270.3,197.6 C269.8,205.6 270.4,221.2 267.2,223.6 C264.2,226.1 260.5,225.1 258.6,222.2 C256.9,219.4 256.2,212.6 257.1,200.8 C258.2,189 261,176.4 264.5,172.5 C268,168.6 270.8,171.4 271.9,172.5 C271.9,172.5 276.6,176.8 284.3,189.2 L285.7,191.5 C285.7,191.5 292.7,203.3 293.5,203.3 C293.5,203.3 294.1,203.8 294.6,203.4 C295.3,203.2 295,199.4 295,199.4 C295,199.4 293.5,186.5 287.1,164.8 C287.1,164.8 286.1,162.1 286.8,159.5 C287.5,156.9 290,158.1 290,158.1 C290,158.1 299.9,163.1 304.8,179.3 C309.7,195.5 306.4,210.2 304.6,214.6 Z M411.5,204.9 C407,212.8 394.2,229.3 377.2,225.4 C371.6,239 366.9,252.8 364.2,273.3 C364.2,273.3 363.6,277.3 360.3,275.9 C357,274.7 351.6,269.3 350.5,261.7 C349.3,251.7 353.8,234.9 362.8,215.6 C360.2,211.3 358.4,205.2 359.9,196.4 C359.9,196.4 362.2,180.2 378.5,165.6 C378.5,165.6 380.5,163.9 381.6,164.4 C382.8,164.9 382.3,170.2 381.3,172.8 C380.3,175.4 373,187.9 373,187.9 C373,187.9 368.5,196.4 369.7,203.1 C378.2,190 397.7,163.5 409.7,171.8 C413.7,174.7 415.6,181 415.6,187.8 C415.6,193.8 414.2,200.1 411.5,204.9 Z M408,184.1 C408,184.1 407.3,178.9 402.2,184.6 C397.8,189.5 389.9,198.6 383.5,210.9 C390.2,210.1 396.6,206.5 398.6,204.7 C401.8,201.9 409.2,194.2 408,184.1 Z M505.1,182.9 C506.5,182.9 507.6,184 507.8,185.5 L507.8,192 C507.8,193.4 506.7,194.5 505.3,194.5 L474.6,194.5 C474.6,196.1 474.6,197.6 474.6,198.9 C474.6,208.4 474.2,216.2 473.3,224.9 C473.2,226.2 472.1,227.2 470.8,227.2 L464.1,227.2 C463.5,227.2 462.8,226.9 462.4,226.4 C461.9,225.9 461.7,225.3 461.8,224.6 C462.7,215.9 463.1,208.2 463.1,198.9 C463.1,197.5 463.1,196.1 463.1,194.5 L432.7,194.5 C431.3,194.5 430.2,193.4 430.2,192 L430.2,185.5 C430.2,184.1 431.3,183 432.7,183 L462.6,183 C461.9,172.5 460.6,162.4 458.6,152.1 C458.4,151.4 458.6,150.8 459,150.3 C459.4,149.8 460,149.5 460.6,149.5 L467.8,149.5 C468.9,149.5 469.9,150.3 470.1,151.4 C472.1,162 473.4,172.3 474,182.9 L505.1,182.9 Z M465.8,134.3 C466.1,135 466.1,135.8 465.6,136.6 C465.2,137.2 464.5,137.6 463.7,137.6 L457,137.6 C455.8,137.6 454.8,136.9 454.3,135.8 C439,99.5 413.5,68.6 380.8,46.5 C347.3,23.8 308.1,11.8 267.4,11.8 C233.8,11.8 200.4,20.3 171,36.2 C142.5,51.6 117.8,74 99.5,100.8 C98.9,101.7 97.9,102.2 96.9,102.2 C96.6,102.2 96.2,102.1 95.9,102 L90.3,100.1 C89.5,99.8 89,99.3 88.7,98.5 C88.5,97.8 88.6,96.9 89,96.3 C128.8,36.5 195.4,0.8 267.3,0.8 C310.8,0.8 352.6,13.7 388.3,38.2 C423.1,62 450,95.3 465.8,134.3 Z" id="Shape"></path>
        </g>
    </g>
</svg>