<?xml version="1.0" encoding="UTF-8"?>
<svg width="1000px" height="174px" viewBox="0 0 1000 174" version="1.1" xmlns="http://www.w3.org/2000/svg" xmlns:xlink="http://www.w3.org/1999/xlink">
    <!-- Generator: Sketch 50.2 (55047) - http://www.bohemiancoding.com/sketch -->
    <title>hbomax</title>
    <desc>Created with Sketch.</desc>
    <defs></defs>
    <g id="Page-1" stroke="none" stroke-width="1" fill="none" fill-rule="evenodd">
        <g id="hbomax" fill="currentColor" fill-rule="nonzero">
            <path d="M123.1776,172.539527 L77.0883,172.539527 L77.0883,106.814513 L47.2711,106.814513 L47.2711,172.539527 L0,172.539527 L0,2.9999 L47.1802,2.9999 L47.1802,66.27045 L76.9974,66.27045 L76.9974,2.9999 L123.0867,2.9999 L123.0867,172.539527 L123.1776,172.539527 Z M334.4431,173.266775 C381.6233,173.266775 420.1674,133.995397 420.1674,86.17886 C420.1674,37.63507 381.6233,0.09091 334.4431,0.09091 C286.6265,0.09091 262.4455,34.81699 256.6275,48.99832 C256.6275,27.99904 235.6283,2.90899 211.2655,2.90899 L132.5409,2.90899 L132.5409,172.539527 L205.8111,172.539527 C235.6283,172.539527 256.6275,147.085857 256.6275,124.722989 C263.2637,138.540696 286.7174,173.266775 334.4431,173.266775 Z M199.9931,104.360052 C206.8111,104.360052 212.2654,110.996187 212.2654,118.541383 C212.2654,126.450202 206.8111,133.086338 199.9931,133.086338 L176.5394,133.086338 L176.5394,104.360052 L199.9931,104.360052 Z M199.9931,40.72587 C206.8111,40.72587 212.2654,47.36201 212.2654,54.9072 C212.2654,62.4524 206.8111,69.08854 199.9931,69.08854 L176.5394,69.08854 L176.5394,40.72587 L199.9931,40.72587 Z M230.9921,86.17886 C236.4464,85.81523 245.3552,79.54272 248.7187,75.81558 C247.446,80.36088 247.446,94.72402 248.7187,99.26932 C244.9916,93.72405 236.4464,87.17882 230.9921,86.17886 Z M291.4445,86.17886 C291.4445,62.27059 310.8984,42.99852 334.8067,43.08943 C358.8059,43.27124 377.8961,62.81602 377.6234,86.8152 C377.2598,110.450752 358.1695,129.450099 334.534,129.450099 C310.7166,129.450099 291.4445,110.178034 291.4445,86.17886 Z M334.4431,120.17769 C352.8061,120.17769 368.2601,105.0873 368.2601,86.17886 C368.2601,67.27042 352.8061,52.36184 334.4431,52.36184 C315.5346,52.36184 300.4442,67.27042 300.4442,86.17886 C300.4442,105.0873 315.5346,120.17769 334.4431,120.17769 Z M666.522565,62.9978358 C665.613506,21.9083383 636.523596,0.181811936 600.888456,0.181811936 C581.343673,0.181811936 563.707916,6.72704163 551.708328,19.4538772 C539.70874,6.72704163 522.072982,0.181811936 502.528199,0.181811936 C466.89306,0.181811936 437.80315,21.9992443 436.89409,63.0887418 C436.89409,63.1796478 436.89409,63.2705537 436.89409,63.3614597 L436.89409,157.085513 C436.89409,165.72158 443.89385,172.630433 452.439011,172.630433 L467.165778,172.630433 C468.620273,172.630433 469.802051,171.448656 469.802051,169.99416 L469.802051,63.2705537 C470.438392,42.9985229 484.801535,32.2716186 502.528199,32.2716186 C520.254863,32.2716186 534.618006,42.9985229 535.254348,63.2705537 L535.254348,156.994607 C535.254348,165.630674 542.254107,172.539527 550.799268,172.539527 L565.526035,172.539527 C566.98053,172.539527 568.162308,171.35775 568.162308,169.903254 L568.162308,63.1796478 C568.79865,42.9076169 583.161793,32.1807127 600.888456,32.1807127 C618.61512,32.1807127 632.978263,42.9076169 633.614605,63.1796478 L633.614605,156.903701 C633.614605,165.539768 640.614364,172.448621 649.159525,172.448621 L663.886292,172.448621 C665.340788,172.448621 666.522565,171.266844 666.522565,169.812348 L666.522565,63.0887418 C666.613471,63.1796478 666.522565,63.0887418 666.522565,62.9978358 Z M998.056631,2.81808501 L973.057489,2.81808501 C966.148636,2.81808501 959.694312,6.27251179 955.785356,11.9995878 L928.149941,52.9072734 C924.513703,58.2707255 916.695789,58.2707255 913.059551,52.9072734 L885.424136,11.9995878 C881.606086,6.27251179 875.060856,2.81808501 868.152002,2.81808501 L843.152861,2.81808501 C841.60746,2.81808501 840.6984,4.5452984 841.516554,5.81798195 L890.787588,78.9063802 C894.332921,84.1789264 894.332921,91.0877799 890.787588,96.3603261 L841.516554,169.448724 C840.607494,170.721408 841.60746,172.448621 843.152861,172.448621 L868.152002,172.448621 C875.060856,172.448621 881.51518,168.994195 885.424136,163.267119 L913.059551,122.359433 C916.695789,116.995981 924.513703,116.995981 928.149941,122.359433 L955.785356,163.267119 C959.603406,168.994195 966.148636,172.448621 973.057489,172.448621 L998.056631,172.448621 C999.602032,172.448621 1000.51109,170.721408 999.692938,169.448724 L950.330997,96.451232 C946.785665,91.1786859 946.785665,84.2698323 950.330997,78.9972862 L999.602032,5.90888792 C1000.51109,4.63620437 999.602032,2.81808501 998.056631,2.81808501 Z M830.244214,2.81808501 L815.517447,2.81808501 C808.063158,2.81808501 801.790646,8.09063115 800.245244,15.0903907 C787.154785,5.09073421 770.700805,0 752.974141,0 C709.884712,0 674.885914,29.9989694 674.885914,86.6333875 C674.885914,143.267806 709.793806,173.266775 752.974141,173.266775 C770.609899,173.266775 786.882067,168.266947 799.972526,158.449102 C800.699774,166.357921 807.33591,172.630433 815.517447,172.630433 L830.244214,172.630433 C831.698709,172.630433 832.880487,171.448656 832.880487,169.99416 L832.880487,5.45435808 C832.789581,3.99986259 831.698709,2.81808501 830.244214,2.81808501 Z M752.974141,141.086062 C727.247752,141.086062 706.339379,122.268527 706.339379,86.7242935 C706.339379,51.18006 727.247752,32.3625246 752.974141,32.3625246 C778.70053,32.3625246 799.608903,51.18006 799.608903,86.7242935 C799.608903,122.268527 778.70053,141.086062 752.974141,141.086062 Z" id="path3441"></path>
        </g>
    </g>
</svg>