<svg width="117" height="17" viewBox="0 0 117 17" fill="none" xmlns="http://www.w3.org/2000/svg">
<g clip-path="url(#clip0_201_17)">
<path d="M0.893016 1.37284L3.74578 2.79922C3.84739 2.85002 3.88857 2.97357 3.83777 3.07518C3.81786 3.11498 3.78559 3.14726 3.74578 3.16716L0.297672 4.89122C0.196067 4.94202 0.0725172 4.90084 0.0217149 4.79923C0.00743455 4.77067 0 4.73918 0 4.70725V1.92475C0 1.58396 0.276267 1.30769 0.617059 1.30769C0.712854 1.30769 0.807334 1.33 0.893016 1.37284ZM4.4114 3.13203L7.85951 4.85608C7.96111 4.90689 8.00229 5.03044 7.95149 5.13204C7.93159 5.17185 7.89931 5.20412 7.85951 5.22403L4.4114 6.94808C4.30979 6.99888 4.18624 6.9577 4.13544 6.85609C4.12116 6.82753 4.11372 6.79604 4.11372 6.76411V3.316C4.11372 3.2024 4.20581 3.11031 4.31941 3.11031C4.35134 3.11031 4.38284 3.11775 4.4114 3.13203ZM8.52512 5.18889L11.9732 6.91295C12.0748 6.96375 12.116 7.0873 12.0652 7.1889C12.0453 7.22871 12.013 7.26099 11.9732 7.28089L8.52512 9.00494C8.42352 9.05575 8.29997 9.01456 8.24916 8.91296C8.23488 8.8844 8.22745 8.8529 8.22745 8.82097V5.37286C8.22745 5.25926 8.31954 5.16718 8.43314 5.16718C8.46507 5.16718 8.49656 5.17461 8.52512 5.18889ZM12.6388 7.24575L15.3511 8.60186C15.6559 8.75427 15.7794 9.12492 15.627 9.42974C15.5673 9.54915 15.4705 9.64598 15.3511 9.70569L12.6388 11.0618C12.5372 11.1126 12.4137 11.0714 12.3629 10.9698C12.3486 10.9413 12.3412 10.9098 12.3412 10.8778V7.42972C12.3412 7.31613 12.4333 7.22404 12.5469 7.22404C12.5788 7.22404 12.6103 7.23147 12.6388 7.24575ZM0.297672 9.30262L3.74578 11.0267C3.84739 11.0775 3.88857 11.201 3.83777 11.3026C3.81786 11.3424 3.78559 11.3747 3.74578 11.3946L0.297672 13.1187C0.196067 13.1695 0.0725172 13.1283 0.0217149 13.0267C0.00743455 12.9981 0 12.9666 0 12.9347V9.48659C0 9.37299 0.0920889 9.2809 0.205686 9.2809C0.237618 9.2809 0.269111 9.28833 0.297672 9.30262ZM4.4114 11.3595L7.85951 13.0835C7.96111 13.1343 8.00229 13.2579 7.95149 13.3595C7.93159 13.3993 7.89931 13.4316 7.85951 13.4515L4.4114 15.1755C4.30979 15.2263 4.18624 15.1851 4.13544 15.0835C4.12116 15.055 4.11372 15.0235 4.11372 14.9916V11.5434C4.11372 11.4299 4.20581 11.3378 4.31941 11.3378C4.35134 11.3378 4.38284 11.3452 4.4114 11.3595ZM0.297672 5.18889L3.74578 6.91295C3.84739 6.96375 3.88857 7.0873 3.83777 7.1889C3.81786 7.22871 3.78559 7.26099 3.74578 7.28089L0.297672 9.00494C0.196067 9.05575 0.0725172 9.01456 0.0217149 8.91296C0.00743455 8.8844 0 8.8529 0 8.82097V5.37286C0 5.25926 0.0920889 5.16718 0.205686 5.16718C0.237618 5.16718 0.269111 5.17461 0.297672 5.18889ZM4.4114 7.24575L7.85951 8.96981C7.96111 9.02061 8.00229 9.14416 7.95149 9.24576C7.93159 9.28557 7.89931 9.31785 7.85951 9.33775L4.4114 11.0618C4.30979 11.1126 4.18624 11.0714 4.13544 10.9698C4.12116 10.9413 4.11372 10.9098 4.11372 10.8778V7.42972C4.11372 7.31613 4.20581 7.22404 4.31941 7.22404C4.35134 7.22404 4.38284 7.23147 4.4114 7.24575ZM8.52512 9.30262L11.9732 11.0267C12.0748 11.0775 12.116 11.201 12.0652 11.3026C12.0453 11.3424 12.013 11.3747 11.9732 11.3946L8.52512 13.1187C8.42352 13.1695 8.29997 13.1283 8.24916 13.0267C8.23488 12.9981 8.22745 12.9666 8.22745 12.9347V9.48659C8.22745 9.37299 8.31954 9.2809 8.43314 9.2809C8.46507 9.2809 8.49656 9.28833 8.52512 9.30262ZM0.297672 13.4163L3.74578 15.1404C3.84739 15.1912 3.88857 15.3147 3.83777 15.4164C3.81786 15.4562 3.78559 15.4884 3.74578 15.5083L0.893016 16.9347C0.588202 17.0871 0.217551 16.9636 0.0651446 16.6588C0.0223036 16.5731 0 16.4786 0 16.3828V13.6003C0 13.4867 0.0920889 13.3946 0.205686 13.3946C0.237618 13.3946 0.269111 13.4021 0.297672 13.4163Z" fill="#6C757D"/>
<path d="M24.2265 0.766759H26.3447V11.931C26.3447 12.9165 26.1902 13.7219 25.8813 14.347C25.5724 14.9721 25.1863 15.4649 24.723 15.8253C24.2596 16.1856 23.7632 16.4357 23.2337 16.5754C22.7041 16.7152 22.2187 16.785 21.7775 16.785C20.6743 16.785 19.7439 16.5019 18.9864 15.9356C18.2289 15.3693 17.7472 14.5125 17.5412 13.3652L19.6152 12.9018C19.7329 13.4902 19.9756 13.9535 20.3433 14.2918C20.7111 14.6301 21.1891 14.7993 21.7775 14.7993C22.307 14.7993 22.7299 14.6963 23.0461 14.4904C23.3624 14.2845 23.6088 14.016 23.7853 13.6851C23.9618 13.3541 24.0795 12.9754 24.1383 12.5488C24.1971 12.1222 24.2265 11.6883 24.2265 11.247V0.766759ZM37.8252 16.3879H35.8394V14.7772H35.7953C35.5452 15.3362 35.1113 15.7885 34.4935 16.1342C33.8758 16.4798 33.1624 16.6527 32.3534 16.6527C31.8385 16.6527 31.3531 16.5754 30.8972 16.421C30.4412 16.2665 30.0403 16.0275 29.6947 15.7039C29.349 15.3803 29.0732 14.9648 28.8673 14.4573C28.6614 13.9498 28.5584 13.3505 28.5584 12.6591V5.92968H30.5441V12.1075C30.5441 12.5929 30.6103 13.0085 30.7427 13.3541C30.8751 13.6998 31.0516 13.9793 31.2722 14.1925C31.4929 14.4058 31.7466 14.5603 32.0334 14.6559C32.3203 14.7515 32.6181 14.7993 32.927 14.7993C33.3389 14.7993 33.7213 14.7331 34.0743 14.6007C34.4274 14.4683 34.7362 14.2587 35.001 13.9719C35.2658 13.6851 35.4717 13.321 35.6188 12.8798C35.7659 12.4385 35.8394 11.9163 35.8394 11.3132V5.92968H37.8252V16.3879ZM45.773 8.55526C45.5377 8.26108 45.2472 8.0147 44.9015 7.81612C44.5558 7.61755 44.133 7.51826 43.6328 7.51826C43.1621 7.51826 42.754 7.61755 42.4083 7.81612C42.0626 8.0147 41.8898 8.3052 41.8898 8.68764C41.8898 8.99654 41.9891 9.24659 42.1877 9.43781C42.3862 9.62903 42.6216 9.78348 42.8937 9.90115C43.1658 10.0188 43.4563 10.1071 43.7652 10.1659C44.0741 10.2248 44.3389 10.2762 44.5595 10.3204C44.9861 10.4233 45.3869 10.5484 45.762 10.6954C46.1371 10.8425 46.4607 11.0338 46.7328 11.2691C47.0049 11.5044 47.2182 11.7913 47.3726 12.1296C47.5271 12.4679 47.6043 12.8798 47.6043 13.3652C47.6043 13.9535 47.4793 14.4573 47.2292 14.8765C46.9792 15.2957 46.6556 15.6377 46.2584 15.9025C45.8613 16.1673 45.409 16.3585 44.9015 16.4761C44.394 16.5938 43.8829 16.6527 43.3681 16.6527C42.5002 16.6527 41.739 16.5203 41.0845 16.2555C40.4299 15.9907 39.8452 15.5053 39.3304 14.7993L40.8307 13.5637C41.1543 13.8873 41.5147 14.1742 41.9119 14.4242C42.309 14.6743 42.7944 14.7993 43.3681 14.7993C43.6181 14.7993 43.8719 14.7736 44.1293 14.7221C44.3867 14.6706 44.6147 14.5897 44.8132 14.4794C45.0118 14.3691 45.1736 14.2293 45.2986 14.0602C45.4237 13.891 45.4862 13.6961 45.4862 13.4755C45.4862 13.1813 45.3943 12.9386 45.2104 12.7474C45.0265 12.5562 44.8059 12.4054 44.5485 12.2951C44.2911 12.1847 44.019 12.0965 43.7321 12.0303C43.4453 11.9641 43.1916 11.909 42.9709 11.8648C42.5444 11.7619 42.1399 11.6442 41.7574 11.5118C41.375 11.3794 41.0367 11.2029 40.7425 10.9823C40.4483 10.7616 40.213 10.4822 40.0364 10.1439C39.8599 9.80554 39.7717 9.38633 39.7717 8.88622C39.7717 8.34198 39.8857 7.86761 40.1137 7.46311C40.3417 7.0586 40.6432 6.72397 41.0183 6.45921C41.3934 6.19444 41.8199 5.99587 42.298 5.86348C42.776 5.7311 43.2578 5.66491 43.7432 5.66491C44.4492 5.66491 45.1258 5.79729 45.773 6.06206C46.4202 6.32682 46.935 6.76809 47.3175 7.38588L45.773 8.55526ZM55.6135 7.65065H52.7672V12.3944C52.7672 12.6885 52.7746 12.979 52.7893 13.2659C52.804 13.5527 52.8592 13.8101 52.9548 14.0381C53.0504 14.2661 53.1975 14.45 53.396 14.5897C53.5946 14.7294 53.8851 14.7993 54.2676 14.7993C54.5029 14.7993 54.7456 14.7772 54.9957 14.7331C55.2457 14.689 55.4737 14.6081 55.6796 14.4904V16.2996C55.4443 16.432 55.1391 16.524 54.764 16.5754C54.3889 16.6269 54.0984 16.6527 53.8925 16.6527C53.1276 16.6527 52.5356 16.546 52.1163 16.3327C51.6971 16.1194 51.3882 15.8437 51.1897 15.5053C50.9911 15.167 50.8734 14.7883 50.8367 14.3691C50.7999 13.9498 50.7815 13.527 50.7815 13.1004V7.65065H48.4869V5.92968H50.7815V2.9952H52.7672V5.92968H55.6135V7.65065ZM55.7753 0.766759H57.9816L61.4236 13.2548H61.4677L65.1523 0.766759H67.5794L71.264 13.2548H71.3081L74.7501 0.766759H76.9564L72.4113 16.3879H70.1829L66.3879 3.63505H66.3438L62.5709 16.3879H60.3424L55.7753 0.766759ZM76.5667 7.20937C77.1256 6.69455 77.7728 6.30844 78.5083 6.05103C79.2437 5.79361 79.9792 5.66491 80.7146 5.66491C81.4795 5.66491 82.1377 5.76052 82.6893 5.95174C83.2409 6.14296 83.6932 6.40037 84.0463 6.72397C84.3993 7.04757 84.6604 7.41898 84.8295 7.83819C84.9987 8.2574 85.0833 8.695 85.0833 9.15098V14.4904C85.0833 14.8581 85.0906 15.1964 85.1053 15.5053C85.12 15.8142 85.1421 16.1084 85.1715 16.3879H83.4064C83.3623 15.8584 83.3402 15.3288 83.3402 14.7993H83.2961C82.8548 15.4759 82.3326 15.954 81.7296 16.2334C81.1265 16.5129 80.4278 16.6527 79.6335 16.6527C79.1481 16.6527 78.6848 16.5865 78.2435 16.4541C77.8022 16.3217 77.4161 16.1231 77.0852 15.8584C76.7542 15.5936 76.4931 15.2663 76.3019 14.8765C76.1107 14.4867 76.0151 14.0344 76.0151 13.5196C76.0151 12.843 76.1658 12.2767 76.4674 11.8207C76.7689 11.3647 77.1808 10.9933 77.7029 10.7065C78.2251 10.4196 78.8355 10.2137 79.5342 10.0887C80.2329 9.96366 80.9794 9.90115 81.7737 9.90115H83.2299V9.45987C83.2299 9.19511 83.1784 8.93035 83.0755 8.66558C82.9725 8.40081 82.8181 8.16179 82.6121 7.94851C82.4062 7.73522 82.1488 7.56607 81.8399 7.44104C81.531 7.31601 81.1633 7.2535 80.7367 7.2535C80.3543 7.2535 80.0196 7.29027 79.7328 7.36382C79.446 7.43736 79.1849 7.5293 78.9495 7.63962C78.7142 7.74993 78.5009 7.87864 78.3097 8.02573C78.1185 8.17282 77.9346 8.31256 77.7581 8.44494L76.5667 7.20937ZM82.1708 11.3574C81.7001 11.3574 81.2184 11.3831 80.7257 11.4346C80.2329 11.4861 79.7843 11.5853 79.3798 11.7324C78.9753 11.8795 78.6443 12.0855 78.3869 12.3502C78.1295 12.615 78.0008 12.9533 78.0008 13.3652C78.0008 13.9682 78.203 14.4022 78.6076 14.6669C79.0121 14.9317 79.56 15.0641 80.2513 15.0641C80.7955 15.0641 81.2589 14.9721 81.6413 14.7883C82.0238 14.6044 82.3326 14.3654 82.568 14.0712C82.8033 13.777 82.9725 13.4497 83.0755 13.0894C83.1784 12.729 83.2299 12.3723 83.2299 12.0193V11.3574H82.1708ZM93.2714 7.65065H90.4251V12.3944C90.4251 12.6885 90.4325 12.979 90.4472 13.2659C90.4619 13.5527 90.5171 13.8101 90.6127 14.0381C90.7083 14.2661 90.8554 14.45 91.054 14.5897C91.2525 14.7294 91.543 14.7993 91.9255 14.7993C92.1608 14.7993 92.4035 14.7772 92.6536 14.7331C92.9036 14.689 93.1316 14.6081 93.3375 14.4904V16.2996C93.1022 16.432 92.797 16.524 92.4219 16.5754C92.0468 16.6269 91.7563 16.6527 91.5504 16.6527C90.7855 16.6527 90.1935 16.546 89.7743 16.3327C89.355 16.1194 89.0462 15.8437 88.8476 15.5053C88.649 15.167 88.5313 14.7883 88.4946 14.3691C88.4578 13.9498 88.4394 13.527 88.4394 13.1004V7.65065H86.1448V5.92968H88.4394V2.9952H90.4251V5.92968H93.2714V7.65065ZM102.391 8.70971C102.023 8.32727 101.637 8.03676 101.233 7.83819C100.828 7.63961 100.346 7.54033 99.7875 7.54033C99.2433 7.54033 98.7689 7.63961 98.3644 7.83819C97.9599 8.03676 97.6216 8.30888 97.3495 8.65455C97.0774 9.00021 96.8714 9.39736 96.7317 9.84599C96.592 10.2946 96.5221 10.7616 96.5221 11.247C96.5221 11.7324 96.603 12.1921 96.7648 12.626C96.9266 13.0599 97.1546 13.4387 97.4488 13.7623C97.7429 14.0859 98.096 14.3396 98.5078 14.5235C98.9197 14.7074 99.383 14.7993 99.8978 14.7993C100.457 14.7993 100.935 14.7 101.332 14.5014C101.729 14.3029 102.097 14.0124 102.435 13.6299L103.847 15.042C103.332 15.6157 102.733 16.0275 102.049 16.2776C101.365 16.5276 100.641 16.6527 99.8758 16.6527C99.0668 16.6527 98.3276 16.5203 97.6584 16.2555C96.9891 15.9907 96.4118 15.6193 95.9264 15.1413C95.441 14.6632 95.0659 14.0896 94.8011 13.4203C94.5364 12.751 94.404 12.0119 94.404 11.2029C94.404 10.3939 94.5364 9.6511 94.8011 8.97447C95.0659 8.29785 95.4373 7.71684 95.9153 7.23144C96.3934 6.74603 96.967 6.36727 97.6363 6.09515C98.3056 5.82303 99.0521 5.68697 99.8758 5.68697C100.641 5.68697 101.372 5.82303 102.071 6.09515C102.77 6.36727 103.377 6.7828 103.891 7.34175L102.391 8.70971ZM105.546 -0.292301H107.532V7.54033H107.576C107.826 6.98138 108.26 6.52908 108.878 6.18341C109.496 5.83774 110.209 5.66491 111.018 5.66491C111.518 5.66491 112 5.74213 112.463 5.89658C112.926 6.05103 113.331 6.29005 113.677 6.61365C114.022 6.93725 114.298 7.35278 114.504 7.86025C114.71 8.36772 114.813 8.96711 114.813 9.65845V16.3879H112.827V10.21C112.827 9.72464 112.761 9.30911 112.629 8.96344C112.496 8.61777 112.32 8.3383 112.099 8.12502C111.878 7.91173 111.625 7.75729 111.338 7.66168C111.051 7.56607 110.753 7.51826 110.444 7.51826C110.032 7.51826 109.65 7.58445 109.297 7.71684C108.944 7.84922 108.635 8.05882 108.37 8.34565C108.106 8.63248 107.9 8.99653 107.753 9.43781C107.605 9.87909 107.532 10.4013 107.532 11.0043V16.3879H105.546V-0.292301Z" fill="#6C757D"/>
</g>
<defs>
<clipPath id="clip0_201_17">
<rect width="116.385" height="17" fill="white"/>
</clipPath>
</defs>
</svg>
