<svg width="63" height="17" viewBox="0 0 63 17" fill="none" xmlns="http://www.w3.org/2000/svg">
<g clip-path="url(#clip0_201_65)">
<path d="M8.6494 15.9042C7.70314 16.0704 6.74024 16.1202 5.74417 16.2529L2.70601 7.35453V16.6348C1.75976 16.7344 0.896496 16.8672 0 17V0H2.52351L5.97656 9.64565V0H8.6494V15.9042ZM13.8789 6.22559C14.9083 6.22559 16.4854 6.17577 17.4317 6.17577V8.83196C16.2529 8.83196 14.875 8.83196 13.8789 8.88178V12.833C15.4395 12.7334 17.0001 12.6005 18.5771 12.5507V15.1072L11.2226 15.6884V0H18.5771V2.65625H13.8789V6.22559ZM28.455 2.65632H25.6992V14.875C24.8027 14.875 23.9062 14.875 23.0431 14.9082V2.65632H20.2873V0H28.4552L28.455 2.65632ZM32.7714 6.04302H36.4072V8.69921H32.7714V14.7257H30.1648V0H37.5859V2.65625H32.7714V6.04302ZM41.9023 12.4014C43.4131 12.4345 44.9403 12.5509 46.4179 12.6337V15.2568C44.044 15.1073 41.6699 14.9581 39.2461 14.9082V0H41.9023V12.4014ZM48.6591 15.4395C49.5058 15.4893 50.4023 15.5392 51.2656 15.6386V0H48.6591V15.4395ZM62.9034 0L59.5332 8.08499L62.9034 17C61.9072 16.8672 60.9111 16.6846 59.915 16.5185L58.0059 11.6046L56.0637 16.1202C55.1006 15.954 54.1709 15.9042 53.2082 15.7714L56.6281 7.98529L53.5401 0H56.3954L58.1386 4.46583L59.9981 0L62.9034 0Z" fill="white"/>
</g>
<defs>
<clipPath id="clip0_201_65">
<rect width="62.9034" height="17" fill="white"/>
</clipPath>
</defs>
</svg>
