<?xml version="1.0" encoding="UTF-8"?>
<svg width="1001px" height="309px" viewBox="0 0 1001 309" version="1.1" xmlns="http://www.w3.org/2000/svg" xmlns:xlink="http://www.w3.org/1999/xlink">
    <!-- Generator: Sketch 50.2 (55047) - http://www.bohemiancoding.com/sketch -->
    <title>peacock</title>
    <desc>Created with Sketch.</desc>
    <defs></defs>
    <g id="Page-1" stroke="none" stroke-width="1" fill="none" fill-rule="evenodd">
        <g id="peacock" fill="currentColor" fill-rule="nonzero">
            <path d="M64.92621,95.63008 C29.48038,95.63008 0.667,124.44346 0.667,159.88928 L0.667,308.52334 L31.13709,308.52334 L31.13709,226.02349 L42.3311,237.83317 L87.10714,220.2194 C112.60709,210.26793 129.19101,187.25304 129.19101,159.89488 C129.19101,124.44905 100.37763,95.63008 64.92621,95.63008 Z M76.3329,193.26982 L31.14269,210.88919 L31.14269,159.89488 C31.14269,139.37067 46.48408,124.65614 64.93181,124.65614 C83.37953,124.65614 98.72092,139.57776 98.72092,159.89488 C98.72092,172.7456 92.50265,186.84446 76.3329,193.26982 Z M602.65841,95.63008 C567.21258,95.63008 538.39921,124.44346 538.39921,159.88928 C538.39921,195.33512 567.21258,224.1485 602.65841,224.1485 C638.10424,224.1485 666.91762,195.33512 666.91762,159.88928 C666.91762,124.44346 638.10424,95.63008 602.65841,95.63008 Z M602.65841,195.13363 C583.17524,195.13363 568.8693,179.59074 568.8693,159.89488 C568.8693,140.19902 583.58942,124.65614 602.65841,124.65614 C622.14159,124.65614 636.44753,140.19902 636.44753,159.89488 C636.44753,179.59074 622.14159,195.13363 602.65841,195.13363 Z M741.75517,124.65614 C755.01447,124.65614 765.7943,131.90986 771.39691,142.68969 L795.23455,124.44905 C783.62636,107.24386 764.14319,95.84276 741.75517,95.84276 C706.30374,95.84276 677.49036,124.65614 677.49036,160.10197 C677.49036,195.5478 706.30374,224.36118 741.75517,224.36118 C763.9361,224.36118 783.62076,212.96009 795.23455,195.75489 L771.39691,177.50865 C765.7943,188.29409 755.01447,195.5478 741.75517,195.5478 C722.2664,195.5478 707.96605,180.00492 707.96605,160.30906 C707.96605,140.6132 722.68058,124.65614 741.75517,124.65614 Z M481.8023,124.65614 C495.07279,124.65614 505.85262,131.90986 511.44963,142.68969 L535.28727,124.44905 C523.67908,107.24386 504.19031,95.84276 481.8023,95.84276 C446.35647,95.84276 417.54309,124.65614 417.54309,160.10197 C417.54309,195.5478 446.35647,224.36118 481.8023,224.36118 C503.98323,224.36118 523.67908,212.96009 535.28727,195.75489 L511.44963,177.50865 C505.85262,188.29409 495.07279,195.5478 481.8023,195.5478 C462.31912,195.5478 448.01318,180.00492 448.01318,160.30906 C448.01318,140.6132 462.52621,124.65614 481.8023,124.65614 Z M375.25212,110.97147 C364.88647,100.19163 351.20739,95.63567 336.90145,95.63567 C307.04703,95.63567 276.78962,122.79234 276.78962,159.89488 C276.78962,196.99743 307.04703,224.15409 336.90145,224.15409 C351.20739,224.15409 364.88647,219.59813 375.25212,208.8183 L375.25212,220.42649 L405.72781,220.42649 L405.72781,99.56477 L375.25212,99.56477 L375.25212,110.97147 Z M341.46301,195.13363 C321.98543,195.13363 307.25971,179.59074 307.25971,159.89488 C307.25971,140.19902 322.39401,124.65614 341.46301,124.65614 C360.95178,124.65614 375.25212,140.19902 375.25212,159.89488 C375.25212,179.59074 360.95178,195.13363 341.46301,195.13363 Z M880.01797,155.54041 L866.33889,155.54041 L919.197,99.36328 L880.01797,99.36328 L837.31283,145.38745 L837.31283,33.44736 L806.84273,33.44736 L806.84273,220.43209 L837.31283,220.43209 L837.31283,186.0217 L854.10384,168.18964 L889.96385,220.43209 L926.8649,220.43209 L880.01797,155.54041 Z M203.4017,95.63008 C167.95587,95.63008 139.14249,124.44346 139.14249,159.88928 C139.14249,195.33512 167.95587,224.1485 203.4017,224.1485 C224.54718,224.1485 244.44453,213.99553 255.85123,198.23996 L231.38672,181.24186 C228.48187,186.01051 219.15726,195.12243 203.4017,195.12243 C188.89426,195.12243 177.07339,186.41909 172.10325,173.77545 L264.76725,173.77545 C265.8083,169.21949 266.22247,164.65793 266.22247,159.88928 C266.41837,124.44905 238.85312,95.63008 203.4017,95.63008 Z M172.31034,146.00312 C177.28607,133.35389 189.10135,124.65614 203.4017,124.65614 C217.91473,124.65614 228.90165,133.35948 233.46321,146.00312 L172.31034,146.00312 Z M982.2193,202.18585 C992.3778,202.18585 1000.667,210.47502 1000.667,220.63918 C1000.667,230.79774 992.3722,239.08131 982.2193,239.08131 C972.0551,239.08131 963.7659,230.79214 963.7659,220.63918 C963.7659,210.47502 972.0607,202.18585 982.2193,202.18585 Z M982.2193,151.81281 C992.3778,151.81281 1000.4599,159.89488 1000.667,170.26613 C1000.667,180.42469 992.3722,188.70827 982.2193,188.70827 C972.0551,188.70827 963.7659,180.4191 963.7659,170.26613 C963.7659,160.10197 972.0607,151.81281 982.2193,151.81281 Z M982.2193,252.55889 C992.3778,252.55889 1000.667,260.84806 1000.667,271.01222 C1000.667,281.17078 992.3722,289.45435 982.2193,289.45435 C972.0551,289.45435 963.7659,281.16518 963.7659,271.01222 C963.7659,260.84806 972.0607,252.55889 982.2193,252.55889 Z M982.2193,101.22708 C992.3778,101.22708 1000.4599,109.52184 1000.667,119.6804 C1000.667,129.83897 992.3722,138.12813 982.2193,138.12813 C972.0551,138.12813 963.7659,129.83337 963.7659,119.6804 C963.7659,109.51624 972.0607,101.22708 982.2193,101.22708 Z M982.2193,50.85404 C992.3778,50.85404 1000.4599,59.1488 1000.667,69.30736 C1000.667,79.46593 992.3722,87.75509 982.2193,87.75509 C972.0551,87.75509 963.7659,79.46033 963.7659,69.30736 C963.7659,59.1432 972.0607,50.85404 982.2193,50.85404 Z M982.2193,0.481 C992.3778,0.481 1000.4599,8.77576 1000.667,18.93432 C1000.667,29.09289 992.3722,37.38205 982.2193,37.38205 C972.0551,37.38205 963.7659,29.08729 963.7659,18.93432 C963.7659,8.77016 972.0607,0.481 982.2193,0.481 Z" id="path28"></path>
        </g>
    </g>
</svg>