<svg width="56" height="17" viewBox="0 0 56 17" fill="none" xmlns="http://www.w3.org/2000/svg">
<g clip-path="url(#clip0_201_71)">
<path d="M3.57199 5.2612C1.6219 5.2612 0.0366974 6.8464 0.0366974 8.79649V16.9738H1.71305V12.4349L2.3289 13.0847L4.7923 12.1156C6.19521 11.5681 7.1076 10.3019 7.1076 8.7968C7.1076 6.84671 5.5224 5.2612 3.57199 5.2612ZM4.19955 10.633L1.71335 11.6023V8.7968C1.71335 7.66764 2.55738 6.8581 3.5723 6.8581C4.58722 6.8581 5.43125 7.67903 5.43125 8.7968C5.43125 9.5038 5.08914 10.2795 4.19955 10.633ZM33.156 5.2612C31.2059 5.2612 29.6207 6.8464 29.6207 8.79649C29.6207 10.7466 31.2059 12.3318 33.156 12.3318C35.1061 12.3318 36.6913 10.7466 36.6913 8.79649C36.6913 6.8464 35.1061 5.2612 33.156 5.2612ZM33.156 10.7355C32.0841 10.7355 31.297 9.88039 31.297 8.7968C31.297 7.71321 32.1069 6.8581 33.156 6.8581C34.2279 6.8581 35.0149 7.71321 35.0149 8.7968C35.0149 9.88039 34.2279 10.7355 33.156 10.7355ZM40.8085 6.8581C41.538 6.8581 42.1311 7.25717 42.4393 7.85024L43.7508 6.84671C43.1121 5.90014 42.0402 5.2729 40.8085 5.2729C38.8581 5.2729 37.2729 6.8581 37.2729 8.80819C37.2729 10.7583 38.8581 12.3435 40.8085 12.3435C42.0289 12.3435 43.1118 11.7162 43.7508 10.7697L42.4393 9.76584C42.1311 10.3592 41.538 10.7583 40.8085 10.7583C39.7363 10.7583 38.9496 9.90318 38.9496 8.81959C38.9496 7.736 39.7591 6.8581 40.8085 6.8581ZM26.5069 6.8581C27.237 6.8581 27.8301 7.25717 28.138 7.85024L29.4495 6.84671C28.8108 5.90014 27.7386 5.2729 26.5069 5.2729C24.5568 5.2729 22.9716 6.8581 22.9716 8.80819C22.9716 10.7583 24.5568 12.3435 26.5069 12.3435C27.7272 12.3435 28.8108 11.7162 29.4495 10.7697L28.138 9.76584C27.8301 10.3592 27.237 10.7583 26.5069 10.7583C25.435 10.7583 24.648 9.90318 24.648 8.81959C24.648 7.736 25.4464 6.8581 26.5069 6.8581ZM20.6449 6.10522C20.0747 5.51216 19.3221 5.26151 18.535 5.26151C16.8926 5.26151 15.2279 6.75556 15.2279 8.7968C15.2279 10.838 16.8926 12.3321 18.535 12.3321C19.3221 12.3321 20.0747 12.0814 20.6449 11.4884V12.127H22.3216V5.47767H20.6449V6.10522ZM18.786 10.7355C17.7144 10.7355 16.9043 9.88039 16.9043 8.7968C16.9043 7.71321 17.7369 6.8581 18.786 6.8581C19.8582 6.8581 20.6449 7.71321 20.6449 8.7968C20.6449 9.88039 19.8582 10.7355 18.786 10.7355ZM48.4152 8.55723H47.6627L50.5707 5.46658H48.4152L46.0658 7.99866V1.84014H44.3894V12.1273H46.0658V10.2342L46.9895 9.25315L48.9624 12.1273H50.9926L48.4152 8.55723ZM11.1904 5.2612C9.24029 5.2612 7.65509 6.8464 7.65509 8.79649C7.65509 10.7466 9.24029 12.3318 11.1904 12.3318C12.3537 12.3318 13.4484 11.7732 14.076 10.9064L12.73 9.97123C12.5702 10.2336 12.0572 10.7349 11.1904 10.7349C10.3922 10.7349 9.7419 10.2561 9.46847 9.56046H14.5665C14.6238 9.30981 14.6465 9.05885 14.6465 8.79649C14.6573 6.84671 13.1408 5.2612 11.1904 5.2612ZM9.47986 8.03253C9.7536 7.33662 10.4036 6.8581 11.1904 6.8581C11.9888 6.8581 12.5933 7.33692 12.8443 8.03253H9.47986ZM54.038 11.1235C54.5968 11.1235 55.0529 11.5795 55.0529 12.1387C55.0529 12.6976 54.5965 13.1533 54.038 13.1533C53.4788 13.1533 53.0227 12.6973 53.0227 12.1387C53.0227 11.5795 53.4791 11.1235 54.038 11.1235ZM54.038 8.35216C54.5968 8.35216 55.0415 8.7968 55.0529 9.36739C55.0529 9.92627 54.5965 10.382 54.038 10.382C53.4788 10.382 53.0227 9.92597 53.0227 9.36739C53.0227 8.80819 53.4791 8.35216 54.038 8.35216ZM54.038 13.8948C54.5968 13.8948 55.0529 14.3509 55.0529 14.9101C55.0529 15.4689 54.5965 15.9247 54.038 15.9247C53.4788 15.9247 53.0227 15.4686 53.0227 14.9101C53.0227 14.3509 53.4791 13.8948 54.038 13.8948ZM54.038 5.56912C54.5968 5.56912 55.0415 6.02547 55.0529 6.58435C55.0529 7.14324 54.5965 7.59928 54.038 7.59928C53.4788 7.59928 53.0227 7.14293 53.0227 6.58435C53.0227 6.02516 53.4791 5.56912 54.038 5.56912ZM54.038 2.79779C54.5968 2.79779 55.0415 3.25414 55.0529 3.81302C55.0529 4.37191 54.5965 4.82795 54.038 4.82795C53.4788 4.82795 53.0227 4.3716 53.0227 3.81302C53.0227 3.25383 53.4791 2.79779 54.038 2.79779ZM54.038 0.0264587C54.5968 0.0264587 55.0415 0.482805 55.0529 1.04169C55.0529 1.60058 54.5965 2.05661 54.038 2.05661C53.4788 2.05661 53.0227 1.60027 53.0227 1.04169C53.0227 0.482497 53.4791 0.0264587 54.038 0.0264587Z" fill="white"/>
</g>
<defs>
<clipPath id="clip0_201_71">
<rect width="55.0712" height="17" fill="white"/>
</clipPath>
</defs>
</svg>
