<svg width="56" height="17" viewBox="0 0 56 17" fill="none" xmlns="http://www.w3.org/2000/svg">
<g clip-path="url(#clip0_201_73)">
<path d="M27.2895 16.9243C26.9109 16.9037 26.5324 16.8899 26.1538 16.8624C25.149 16.7867 24.151 16.6352 23.1737 16.4081C19.7943 15.6235 16.8279 14.0474 14.2401 11.7555C13.9992 11.5421 13.7721 11.3219 13.5381 11.1016C13.483 11.0535 13.4348 10.9846 13.4073 10.9158C13.366 10.8194 13.3866 10.7162 13.4555 10.6405C13.5243 10.5648 13.6344 10.5373 13.7308 10.5786C13.7927 10.6061 13.8547 10.6336 13.9097 10.668C16.3806 12.196 19.0785 13.3109 21.9073 13.9717C22.8571 14.1919 23.8138 14.364 24.7773 14.4879C26.1607 14.6599 27.5579 14.7219 28.9482 14.6737C29.6984 14.6531 30.4417 14.5842 31.185 14.4879C32.9194 14.2676 34.6332 13.8753 36.2919 13.3247C37.166 13.0356 38.0194 12.7053 38.8522 12.3199C38.9761 12.251 39.1275 12.2304 39.2652 12.2648C39.4923 12.3199 39.63 12.5539 39.5749 12.781C39.568 12.8085 39.5542 12.8429 39.5405 12.8705C39.4854 12.9737 39.4097 13.0632 39.3134 13.132C38.5219 13.7514 37.6684 14.2952 36.7668 14.7494C35.0668 15.6097 33.2498 16.2223 31.3777 16.5733C30.2972 16.766 29.2097 16.883 28.1154 16.9243V16.9518H27.2895V16.9243ZM17.9223 2.97329C18.0943 2.87005 18.2733 2.75993 18.4591 2.66358C18.9409 2.4158 19.4777 2.29192 20.0215 2.31945C20.4138 2.34009 20.7717 2.45022 21.047 2.73928C21.3085 3.00771 21.4049 3.33807 21.4324 3.69596C21.4393 3.77167 21.4393 3.84738 21.4393 3.92997V7.49515C21.4393 7.80487 21.398 7.84617 21.0883 7.84617H20.2486C20.1935 7.84617 20.1385 7.84617 20.0834 7.83928C20.0008 7.8324 19.932 7.76358 19.9182 7.68098C19.9045 7.60528 19.9045 7.52957 19.9045 7.45386V4.26722C19.9113 4.13645 19.8976 4.01256 19.8632 3.88868C19.8081 3.67532 19.6154 3.5239 19.3951 3.51013C18.9891 3.4826 18.583 3.5652 18.2113 3.73726C18.1563 3.75102 18.1219 3.80609 18.1287 3.86115V7.48139C18.1287 7.55022 18.1287 7.61216 18.115 7.68098C18.115 7.77734 18.0393 7.84617 17.9429 7.84617C17.8397 7.85305 17.7364 7.85305 17.6263 7.85305H16.8968C16.6421 7.85305 16.587 7.79111 16.587 7.53645V4.28098C16.587 4.16398 16.5802 4.04009 16.5526 3.92309C16.5045 3.68908 16.3049 3.5239 16.0708 3.51013C15.6579 3.4826 15.2381 3.5652 14.8664 3.74414C14.8113 3.75791 14.7769 3.81985 14.7907 3.87491V7.54333C14.7907 7.79799 14.7356 7.85305 14.481 7.85305H13.5587C13.3178 7.85305 13.2559 7.78422 13.2559 7.55022V2.7737C13.2559 2.71864 13.2628 2.66358 13.2765 2.60851C13.304 2.52592 13.3866 2.47775 13.4692 2.47775H14.3296C14.4534 2.47775 14.5291 2.55345 14.5704 2.67046C14.6049 2.76681 14.6255 2.85629 14.6599 2.95953C14.7287 2.95953 14.77 2.91135 14.8182 2.88382C15.1968 2.64981 15.596 2.45022 16.0433 2.36762C16.3874 2.2988 16.7316 2.2988 17.0757 2.36762C17.3992 2.43645 17.6883 2.62916 17.8741 2.90447C17.8879 2.92511 17.9016 2.93888 17.9154 2.95264C17.9085 2.95953 17.9154 2.95953 17.9223 2.97329ZM32.3138 5.99475C32.6304 4.92795 32.947 3.86803 33.2636 2.80123L33.3049 2.67734C33.3393 2.55345 33.4563 2.47775 33.5802 2.47775H34.6263C34.8879 2.47775 34.9429 2.55345 34.8534 2.80123L34.4405 3.89556C33.9794 5.09313 33.5182 6.29758 33.0571 7.49515C33.0433 7.53645 33.0227 7.57775 33.0089 7.61904C32.9607 7.76358 32.8162 7.85993 32.6648 7.84617C32.3619 7.83928 32.0591 7.83928 31.7563 7.84617C31.5429 7.85305 31.419 7.75669 31.3433 7.56398C31.1713 7.10973 30.9923 6.6486 30.8202 6.19435C30.4073 5.11378 29.9874 4.03321 29.5745 2.94576C29.5332 2.86317 29.5057 2.76681 29.485 2.67734C29.4644 2.53969 29.5125 2.47086 29.6502 2.47086C30.0425 2.46398 30.4348 2.47086 30.8202 2.47086C30.9854 2.47086 31.0611 2.58098 31.1024 2.72552C31.1781 2.98706 31.2538 3.25548 31.3364 3.51702C31.6186 4.4737 31.8939 5.43726 32.1761 6.39394C32.2312 6.26317 32.2725 6.1324 32.3138 5.99475ZM7.7498 3.23483C7.79798 3.22107 7.83927 3.19354 7.8668 3.15224C7.99069 3.02835 8.12146 2.91135 8.25911 2.80123C8.617 2.52592 9.06437 2.38827 9.51174 2.42268C9.69069 2.42957 9.75263 2.48463 9.7664 2.65669C9.78016 2.8907 9.77328 3.13159 9.77328 3.3656C9.78016 3.46196 9.77328 3.55143 9.75951 3.64779C9.73198 3.77167 9.6838 3.81985 9.55992 3.83362C9.46356 3.8405 9.37409 3.83362 9.27773 3.82673C8.8166 3.78544 8.36923 3.87491 7.93563 4.01945C7.83927 4.05386 7.83927 4.12268 7.83927 4.19839V7.50204C7.83927 7.56398 7.83927 7.61904 7.83239 7.68098C7.82551 7.77046 7.75668 7.83928 7.66721 7.83928C7.61903 7.84617 7.56397 7.84617 7.51579 7.84617H6.62105C6.57287 7.84617 6.51781 7.84617 6.46964 7.83928C6.38016 7.8324 6.31134 7.75669 6.30445 7.66722C6.29757 7.61216 6.29757 7.5571 6.29757 7.50204V2.82188C6.29757 2.50528 6.33198 2.47086 6.64858 2.47086H7.30931C7.48826 2.47086 7.57085 2.53281 7.61903 2.70487C7.66721 2.87694 7.7085 3.049 7.7498 3.23483ZM39.9466 10.2138C40.4008 10.2275 40.8482 10.2551 41.2887 10.3721C41.4126 10.4065 41.5296 10.4478 41.6466 10.5028C41.8049 10.5648 41.9081 10.7162 41.9287 10.8814C41.9563 11.0741 41.9632 11.2737 41.9494 11.4733C41.8599 12.6502 41.4951 13.7858 40.8895 14.7976C40.6692 15.1624 40.4008 15.4927 40.0911 15.7818C40.0291 15.8437 39.9534 15.8919 39.8708 15.9194C39.7401 15.9539 39.6575 15.885 39.6506 15.7543C39.6575 15.6854 39.6713 15.6166 39.6988 15.5478C39.9397 14.9008 40.1737 14.2607 40.3595 13.5931C40.4696 13.2284 40.5453 12.8567 40.5935 12.4782C40.6073 12.3405 40.6142 12.2028 40.6004 12.0652C40.5935 11.8312 40.4421 11.6316 40.215 11.5628C40.0016 11.4939 39.7814 11.4526 39.5543 11.4389C38.9211 11.4113 38.2879 11.4389 37.6615 11.5215L36.8287 11.6247C36.7393 11.6316 36.6567 11.6247 36.6085 11.5421C36.5603 11.4595 36.581 11.3769 36.6291 11.2943C36.6842 11.2186 36.753 11.1498 36.8356 11.1016C37.3449 10.7369 37.9162 10.5166 38.5219 10.3721C38.9899 10.2757 39.4648 10.2275 39.9466 10.2138ZM37.0628 7.63969C37.049 7.77734 36.987 7.83928 36.8494 7.84617C36.4777 7.85305 36.113 7.85305 35.7413 7.84617C35.6036 7.84617 35.5417 7.77734 35.5279 7.64657C35.5211 7.60528 35.521 7.5571 35.521 7.5158V2.75305C35.5279 2.53969 35.583 2.47775 35.7964 2.47775H36.7874C37.0008 2.47775 37.0628 2.53969 37.0628 2.75305V5.16196V7.63969ZM10.434 5.14819V2.70487C10.4409 2.53969 10.5028 2.47775 10.668 2.47086C11.0259 2.46398 11.3838 2.46398 11.7417 2.47086C11.9 2.47086 11.9482 2.51904 11.9619 2.67734C11.9688 2.73928 11.9688 2.79434 11.9688 2.85629V7.44009C11.9688 7.5158 11.9619 7.59151 11.9551 7.66722C11.9482 7.75669 11.8794 7.81864 11.7899 7.82552C11.7486 7.8324 11.7142 7.8324 11.6729 7.8324H10.7162C10.6818 7.8324 10.6543 7.8324 10.6198 7.82552C10.5235 7.81864 10.4409 7.74293 10.434 7.64657C10.4271 7.59151 10.4271 7.53645 10.4271 7.48139C10.434 6.71742 10.434 5.93281 10.434 5.14819ZM11.2324 0.00689529C11.3425 1.26961e-05 11.4526 0.0206605 11.5559 0.0550734C11.9275 0.17896 12.1202 0.502442 12.0858 0.92228C12.0583 1.28017 11.7899 1.56924 11.432 1.6243C11.2806 1.65183 11.1223 1.65183 10.9708 1.6243C10.5785 1.5486 10.2895 1.25953 10.317 0.76398C10.3583 0.275316 10.6818 0.00689529 11.2324 0.00689529ZM36.2988 0.00689529C36.4364 -0.0068699 36.5741 0.0206605 36.7049 0.0757212C36.9733 0.17896 37.1591 0.426733 37.1729 0.715802C37.2279 1.34212 36.8081 1.65872 36.2506 1.64495C36.1749 1.64495 36.0992 1.63119 36.0235 1.61742C35.5968 1.51418 35.3765 1.18382 35.4178 0.70892C35.4522 0.330377 35.7482 0.0481908 36.1542 0.0137779C36.2024 0.00689529 36.2506 1.26961e-05 36.2988 0.00689529ZM5.27895 4.58382C5.32713 5.16196 5.31336 5.73321 5.12753 6.29758C4.99676 6.73807 4.74899 7.13726 4.41174 7.44698C3.95061 7.85993 3.4 8.01135 2.79433 7.94941C2.36073 7.90811 1.94089 7.74293 1.59676 7.47451C1.54858 7.5158 1.56923 7.57086 1.56923 7.61904V9.58058C1.56923 10.0073 1.56923 10.0073 1.13563 10.0073C0.887854 10.0073 0.640081 10.0004 0.392308 10.0073C0.234008 10.0142 0.0963563 9.98665 0.00688259 9.84212C0 7.44009 0 5.0243 0 2.6154C0.110121 2.49151 0.254656 2.47086 0.412955 2.47775C0.619433 2.48463 0.832794 2.47775 1.03927 2.47775C1.2251 2.47775 1.29393 2.53969 1.34899 2.71175C1.36964 2.78058 1.3834 2.84941 1.40405 2.91823C1.40405 2.92511 1.41781 2.932 1.43158 2.93888C1.48664 2.91135 1.53482 2.87694 1.57611 2.83564C2.19555 2.37451 2.87692 2.20932 3.63401 2.37451C4.29474 2.52592 4.72834 2.95953 5.01053 3.55143C5.15506 3.87491 5.25142 4.22592 5.27895 4.58382ZM3.63401 6.00852C3.75789 5.58868 3.75789 5.14819 3.7166 4.70771C3.70283 4.46681 3.64089 4.22592 3.53765 4.00568C3.42065 3.73726 3.17287 3.55143 2.88381 3.51013C2.47085 3.42754 2.07854 3.51013 1.7 3.68908C1.61053 3.72349 1.55547 3.80609 1.56235 3.90244C1.56923 4.3154 1.56235 4.72835 1.56235 5.14131V6.38706C1.55547 6.46965 1.60364 6.54536 1.67935 6.57977C1.98907 6.74495 2.3332 6.82066 2.68421 6.80001C2.91822 6.80001 3.13846 6.71054 3.31741 6.55912C3.47571 6.41459 3.58583 6.22188 3.63401 6.00852ZM55.047 4.65953C55.0332 4.69394 55.047 4.73524 55.0814 4.749V5.5405C55.0745 5.54738 55.0676 5.56115 55.0676 5.55426C55.0263 5.58179 55.0332 5.61621 55.0401 5.6575L55.047 5.75386C54.9506 6.70366 54.3518 7.79799 52.9065 7.97005C52.4729 8.032 52.0324 8.00447 51.6126 7.90123C50.8211 7.70163 50.2704 7.21985 49.9951 6.45588C49.6785 5.61621 49.6717 4.69394 49.9883 3.85426C50.3117 2.97329 50.9794 2.47775 51.9085 2.34009C52.349 2.27127 52.7895 2.28503 53.2231 2.38827C54.1522 2.62228 54.7235 3.22107 54.9781 4.12957C55.0125 4.25345 55.0401 4.38422 55.047 4.52876C55.047 4.57923 55.047 4.60447 55.047 4.60447V4.65953ZM53.4227 6.04293C53.5053 5.76074 53.5397 5.46479 53.519 5.16196C53.5259 5.03807 53.519 4.91418 53.5121 4.7903C53.4984 4.52188 53.4296 4.25345 53.3125 4.01256C53.1887 3.75791 52.9615 3.57896 52.6862 3.5239C52.5555 3.49637 52.4247 3.49637 52.2939 3.51013C52.0049 3.53078 51.7433 3.68908 51.5919 3.93686C51.5093 4.07451 51.4405 4.23281 51.4061 4.39111C51.3097 4.7903 51.3166 5.19637 51.351 5.60244C51.3717 5.83645 51.4336 6.07046 51.5368 6.28382C51.6538 6.55224 51.8947 6.74495 52.1838 6.80001C52.3146 6.82754 52.4453 6.82754 52.5761 6.81378C52.8377 6.79313 53.0785 6.65548 53.23 6.44212C53.3194 6.31823 53.3814 6.18746 53.4227 6.04293ZM43.0093 0.0550734C43.2158 0.0550734 43.2708 0.103252 43.2777 0.316612V7.57086C43.2708 7.77046 43.2158 7.8324 43.0231 7.8324C42.7822 7.83928 42.5413 7.8324 42.2935 7.8324H42.1283C42.0113 7.8324 41.915 7.75669 41.8874 7.64657C41.8737 7.56398 41.8462 7.48139 41.8117 7.40568C41.7498 7.41945 41.7223 7.46762 41.6741 7.49515C41.034 7.97005 40.332 8.08706 39.5818 7.85305C39.0312 7.68787 38.6526 7.30244 38.3911 6.80001C38.164 6.34576 38.047 5.84333 38.047 5.33402C38.0332 4.7903 38.0814 4.25345 38.2879 3.74414C38.5012 3.21418 38.8316 2.76681 39.3615 2.51904C40.1186 2.16803 40.8688 2.24374 41.5846 2.66358C41.6328 2.69111 41.6672 2.7324 41.7291 2.73928C41.7636 2.69111 41.7429 2.64293 41.7429 2.59475V0.36479C41.7429 0.103252 41.7911 0.0550734 42.0526 0.0550734H43.0093ZM41.7498 6.37329V5.12066C41.7498 4.70082 41.7429 4.28787 41.7567 3.86115C41.7636 3.77167 41.7154 3.68908 41.6328 3.66155C41.3024 3.51013 40.9377 3.44131 40.5729 3.47572C40.27 3.49637 39.9947 3.66843 39.8502 3.93686C39.7883 4.04698 39.747 4.1571 39.7125 4.2741C39.6093 4.69394 39.5749 5.13443 39.63 5.56803C39.6506 5.80892 39.7125 6.04293 39.8227 6.26317C39.9672 6.54536 40.2425 6.73807 40.5591 6.77248C40.9308 6.82754 41.3093 6.75184 41.6397 6.56601C41.7154 6.53159 41.7636 6.45588 41.7498 6.37329ZM23.9514 5.59556C23.8895 5.58179 23.8206 5.57491 23.7587 5.56803C23.7243 6.18746 24.1028 6.68989 24.6879 6.8069C25.1146 6.8826 25.5551 6.8826 25.9818 6.79313C26.1814 6.75183 26.3741 6.71054 26.5737 6.66236C26.7733 6.61418 26.8559 6.67613 26.8559 6.8826C26.8559 7.05467 26.849 7.22673 26.8559 7.39192C26.8628 7.57086 26.7802 7.66722 26.6219 7.72916C26.3603 7.8324 26.085 7.90123 25.8097 7.94941C25.2866 8.032 24.7567 8.05264 24.2336 7.93564C23.3182 7.74293 22.7125 7.1992 22.4717 6.28382C22.2858 5.56803 22.2583 4.84536 22.4854 4.13645C22.8089 3.09718 23.5178 2.49839 24.6053 2.37451C25.0664 2.31256 25.5344 2.36074 25.9749 2.50528C26.8765 2.82876 27.2482 3.70285 27.0073 4.57005C26.9109 4.91418 26.6838 5.16196 26.3741 5.3409C26.1057 5.48544 25.8166 5.57491 25.5138 5.61621C24.9976 5.6988 24.4676 5.69192 23.9514 5.59556ZM23.7794 4.54252C23.7656 4.65264 23.7656 4.65264 23.8688 4.66641C24.1372 4.70771 24.4125 4.72835 24.681 4.72835C24.8324 4.74212 24.9838 4.72835 25.1283 4.69394C25.3692 4.64576 25.5688 4.54252 25.6514 4.29475C25.6858 4.17775 25.6927 4.05386 25.6721 3.93686C25.6514 3.74414 25.5344 3.57896 25.3555 3.50325C25.2385 3.45507 25.1146 3.42754 24.9907 3.42066C24.5502 3.39313 24.1166 3.56519 23.9101 4.06762C23.8482 4.21904 23.8 4.37734 23.7794 4.54252ZM47.1664 5.66439C46.7053 5.6988 46.2441 5.66439 45.7899 5.58179C45.7623 5.56803 45.7279 5.56803 45.6935 5.56803C45.7073 5.71256 45.7348 5.85022 45.7692 5.98787C45.8931 6.45588 46.2097 6.7243 46.6777 6.81378C47.1457 6.89637 47.6275 6.87572 48.0887 6.7656C48.2401 6.73119 48.3846 6.69677 48.536 6.65548C48.7356 6.6073 48.8182 6.67613 48.8251 6.87572V7.37127C48.8251 7.58463 48.7769 7.65345 48.5773 7.72916C48.1024 7.90811 47.6 8.00447 47.0976 8.01135C46.7534 8.02511 46.4024 7.9907 46.0652 7.90811C45.2806 7.69475 44.73 7.21985 44.4891 6.43524C44.2551 5.67127 44.2206 4.89354 44.4615 4.12957C44.8194 2.97329 45.7004 2.38827 46.8567 2.36074C47.2008 2.34698 47.5518 2.38827 47.8822 2.49151C48.4741 2.69111 48.8664 3.07653 49.0109 3.69596C49.066 3.94374 49.066 4.20528 49.0178 4.45305C48.9421 4.85224 48.6874 5.18949 48.3227 5.36843C47.9648 5.56115 47.5656 5.63686 47.1664 5.66439ZM46.0032 3.81297C45.8381 4.03321 45.7761 4.29475 45.7279 4.56317C45.7142 4.62511 45.7417 4.65264 45.8036 4.65953C46.0789 4.70082 46.3542 4.72147 46.6364 4.72835C46.781 4.73524 46.9255 4.72147 47.0632 4.69394C47.3178 4.64576 47.5449 4.54252 47.6138 4.26722C47.7032 3.89556 47.5862 3.51013 47.1045 3.43443C47.07 3.43443 47.0425 3.42066 47.0081 3.42066C46.6089 3.37937 46.2579 3.47572 46.0032 3.81297Z" fill="white"/>
</g>
<defs>
<clipPath id="clip0_201_73">
<rect width="55.1296" height="17" fill="white"/>
</clipPath>
</defs>
</svg>
