<?xml version="1.0" encoding="UTF-8"?>
<svg width="801px" height="247px" viewBox="0 0 801 247" version="1.1" xmlns="http://www.w3.org/2000/svg" xmlns:xlink="http://www.w3.org/1999/xlink">
    <!-- Generator: Sketch 50.2 (55047) - http://www.bohemiancoding.com/sketch -->
    <title>primevideo</title>
    <desc>Created with Sketch.</desc>
    <defs></defs>
    <g id="Page-1" stroke="none" stroke-width="1" fill="none" fill-rule="evenodd">
        <g id="primevideo" fill="currentColor" fill-rule="nonzero">
            <path d="M396.5,245.9 C391,245.6 385.5,245.4 380,245 C365.4,243.9 350.9,241.7 336.7,238.4 C287.6,227 244.5,204.1 206.9,170.8 C203.4,167.7 200.1,164.5 196.7,161.3 C195.9,160.6 195.2,159.6 194.8,158.6 C194.2,157.2 194.5,155.7 195.5,154.6 C196.5,153.5 198.1,153.1 199.5,153.7 C200.4,154.1 201.3,154.5 202.1,155 C238,177.2 277.2,193.4 318.3,203 C332.1,206.2 346,208.7 360,210.5 C380.1,213 400.4,213.9 420.6,213.2 C431.5,212.9 442.3,211.9 453.1,210.5 C478.3,207.3 503.2,201.6 527.3,193.6 C540,189.4 552.4,184.6 564.5,179 C566.3,178 568.5,177.7 570.5,178.2 C573.8,179 575.8,182.4 575,185.7 C574.9,186.1 574.7,186.6 574.5,187 C573.7,188.5 572.6,189.8 571.2,190.8 C559.7,199.8 547.3,207.7 534.2,214.3 C509.5,226.8 483.1,235.7 455.9,240.8 C440.2,243.6 424.4,245.3 408.5,245.9 L408.5,246.3 L396.5,246.3 L396.5,245.9 Z M260.4,43.2 C262.9,41.7 265.5,40.1 268.2,38.7 C275.2,35.1 283,33.3 290.9,33.7 C296.6,34 301.8,35.6 305.8,39.8 C309.6,43.7 311,48.5 311.4,53.7 C311.5,54.8 311.5,55.9 311.5,57.1 L311.5,108.9 C311.5,113.4 310.9,114 306.4,114 L294.2,114 C293.4,114 292.6,114 291.8,113.9 C290.6,113.8 289.6,112.8 289.4,111.6 C289.2,110.5 289.2,109.4 289.2,108.3 L289.2,62 C289.3,60.1 289.1,58.3 288.6,56.5 C287.8,53.4 285,51.2 281.8,51 C275.9,50.6 270,51.8 264.6,54.3 C263.8,54.5 263.3,55.3 263.4,56.1 L263.4,108.7 C263.4,109.7 263.4,110.6 263.2,111.6 C263.2,113 262.1,114 260.7,114 C259.2,114.1 257.7,114.1 256.1,114.1 L245.5,114.1 C241.8,114.1 241,113.2 241,109.5 L241,62.2 C241,60.5 240.9,58.7 240.5,57 C239.8,53.6 236.9,51.2 233.5,51 C227.5,50.6 221.4,51.8 216,54.4 C215.2,54.6 214.7,55.5 214.9,56.3 L214.9,109.6 C214.9,113.3 214.1,114.1 210.4,114.1 L197,114.1 C193.5,114.1 192.6,113.1 192.6,109.7 L192.6,40.3 C192.6,39.5 192.7,38.7 192.9,37.9 C193.3,36.7 194.5,36 195.7,36 L208.2,36 C210,36 211.1,37.1 211.7,38.8 C212.2,40.2 212.5,41.5 213,43 C214,43 214.6,42.3 215.3,41.9 C220.8,38.5 226.6,35.6 233.1,34.4 C238.1,33.4 243.1,33.4 248.1,34.4 C252.8,35.4 257,38.2 259.7,42.2 C259.9,42.5 260.1,42.7 260.3,42.9 C260.2,43 260.3,43 260.4,43.2 Z M469.5,87.1 C474.1,71.6 478.7,56.2 483.3,40.7 L483.9,38.9 C484.4,37.1 486.1,36 487.9,36 L503.1,36 C506.9,36 507.7,37.1 506.4,40.7 L500.4,56.6 C493.7,74 487,91.5 480.3,108.9 C480.1,109.5 479.8,110.1 479.6,110.7 C478.9,112.8 476.8,114.2 474.6,114 C470.2,113.9 465.8,113.9 461.4,114 C458.3,114.1 456.5,112.7 455.4,109.9 C452.9,103.3 450.3,96.6 447.8,90 C441.8,74.3 435.7,58.6 429.7,42.8 C429.1,41.6 428.7,40.2 428.4,38.9 C428.1,36.9 428.8,35.9 430.8,35.9 C436.5,35.8 442.2,35.9 447.8,35.9 C450.2,35.9 451.3,37.5 451.9,39.6 C453,43.4 454.1,47.3 455.3,51.1 C459.4,65 463.4,79 467.5,92.9 C468.3,91 468.9,89.1 469.5,87.1 Z M112.6,47 C113.3,46.8 113.9,46.4 114.3,45.8 C116.1,44 118,42.3 120,40.7 C125.2,36.7 131.7,34.7 138.2,35.2 C140.8,35.3 141.7,36.1 141.9,38.6 C142.1,42 142,45.5 142,48.9 C142.1,50.3 142,51.6 141.8,53 C141.4,54.8 140.7,55.5 138.9,55.7 C137.5,55.8 136.2,55.7 134.8,55.6 C128.1,55 121.6,56.3 115.3,58.4 C113.9,58.9 113.9,59.9 113.9,61 L113.9,109 C113.9,109.9 113.9,110.7 113.8,111.6 C113.7,112.9 112.7,113.9 111.4,113.9 C110.7,114 109.9,114 109.2,114 L96.2,114 C95.5,114 94.7,114 94,113.9 C92.7,113.8 91.7,112.7 91.6,111.4 C91.5,110.6 91.5,109.8 91.5,109 L91.5,41 C91.5,36.4 92,35.9 96.6,35.9 L106.2,35.9 C108.8,35.9 110,36.8 110.7,39.3 C111.4,41.8 112,44.3 112.6,47 Z M580.4,148.4 C587,148.6 593.5,149 599.9,150.7 C601.7,151.2 603.4,151.8 605.1,152.6 C607.4,153.5 608.9,155.7 609.2,158.1 C609.6,160.9 609.7,163.8 609.5,166.7 C608.2,183.8 602.9,200.3 594.1,215 C590.9,220.3 587,225.1 582.5,229.3 C581.6,230.2 580.5,230.9 579.3,231.3 C577.4,231.8 576.2,230.8 576.1,228.9 C576.2,227.9 576.4,226.9 576.8,225.9 C580.3,216.5 583.7,207.2 586.4,197.5 C588,192.2 589.1,186.8 589.8,181.3 C590,179.3 590.1,177.3 589.9,175.3 C589.8,171.9 587.6,169 584.3,168 C581.2,167 578,166.4 574.7,166.2 C565.5,165.8 556.3,166.2 547.2,167.4 L535.1,168.9 C533.8,169 532.6,168.9 531.9,167.7 C531.2,166.5 531.5,165.3 532.2,164.1 C533,163 534,162 535.2,161.3 C542.6,156 550.9,152.8 559.7,150.7 C566.5,149.3 573.4,148.6 580.4,148.4 Z M538.5,111 C538.3,113 537.4,113.9 535.4,114 C530,114.1 524.7,114.1 519.3,114 C517.3,114 516.4,113 516.2,111.1 C516.1,110.5 516.1,109.8 516.1,109.2 L516.1,40 C516.2,36.9 517,36 520.1,36 L534.5,36 C537.6,36 538.5,36.9 538.5,40 L538.5,75 L538.5,111 Z M151.6,74.8 L151.6,39.3 C151.7,36.9 152.6,36 155,35.9 C160.2,35.8 165.4,35.8 170.6,35.9 C172.9,35.9 173.6,36.6 173.8,38.9 C173.9,39.8 173.9,40.6 173.9,41.5 L173.9,108.1 C173.9,109.2 173.8,110.3 173.7,111.4 C173.6,112.7 172.6,113.6 171.3,113.7 C170.7,113.8 170.2,113.8 169.6,113.8 L155.7,113.8 C155.2,113.8 154.8,113.8 154.3,113.7 C152.9,113.6 151.7,112.5 151.6,111.1 C151.5,110.3 151.5,109.5 151.5,108.7 C151.6,97.6 151.6,86.2 151.6,74.8 Z M163.2,0.1 C164.8,1.13659082e-14 166.4,0.3 167.9,0.8 C173.3,2.6 176.1,7.3 175.6,13.4 C175.2,18.6 171.3,22.8 166.1,23.6 C163.9,24 161.6,24 159.4,23.6 C153.7,22.5 149.5,18.3 149.9,11.1 C150.5,4 155.2,0.1 163.2,0.1 Z M527.4,0.1 C529.4,-0.1 531.4,0.3 533.3,1.1 C537.2,2.6 539.9,6.2 540.1,10.4 C540.9,19.5 534.8,24.1 526.7,23.9 C525.6,23.9 524.5,23.7 523.4,23.5 C517.2,22 514,17.2 514.6,10.3 C515.1,4.8 519.4,0.7 525.3,0.2 C526,0.1 526.7,1.21846977e-14 527.4,0.1 Z M76.7,66.6 C77.4,75 77.2,83.3 74.5,91.5 C72.6,97.9 69,103.7 64.1,108.2 C57.4,114.2 49.4,116.4 40.6,115.5 C34.3,114.9 28.2,112.5 23.2,108.6 C22.5,109.2 22.8,110 22.8,110.7 L22.8,139.2 C22.8,145.4 22.8,145.4 16.5,145.4 C12.9,145.4 9.3,145.3 5.7,145.4 C3.4,145.5 1.4,145.1 0.1,143 C1.77635684e-15,108.1 1.77635684e-15,73 0,38 C1.6,36.2 3.7,35.9 6,36 C9,36.1 12.1,36 15.1,36 C17.8,36 18.8,36.9 19.6,39.4 C19.9,40.4 20.1,41.4 20.4,42.4 C20.4,42.5 20.6,42.6 20.8,42.7 C21.6,42.3 22.3,41.8 22.9,41.2 C31.9,34.5 41.8,32.1 52.8,34.5 C62.4,36.7 68.7,43 72.8,51.6 C74.9,56.3 76.3,61.4 76.7,66.6 Z M52.8,87.3 C54.6,81.2 54.6,74.8 54,68.4 C53.8,64.9 52.9,61.4 51.4,58.2 C49.7,54.3 46.1,51.6 41.9,51 C35.9,49.8 30.2,51 24.7,53.6 C23.4,54.1 22.6,55.3 22.7,56.7 C22.8,62.7 22.7,68.7 22.7,74.7 L22.7,92.8 C22.6,94 23.3,95.1 24.4,95.6 C28.9,98 33.9,99.1 39,98.8 C42.4,98.8 45.6,97.5 48.2,95.3 C50.5,93.2 52.1,90.4 52.8,87.3 Z M799.8,67.7 C799.6,68.2 799.8,68.8 800.3,69 L800.3,80.5 C800.2,80.6 800.1,80.8 800.1,80.7 C799.5,81.1 799.6,81.6 799.7,82.2 L799.8,83.6 C798.4,97.4 789.7,113.3 768.7,115.8 C762.4,116.7 756,116.3 749.9,114.8 C738.4,111.9 730.4,104.9 726.4,93.8 C721.8,81.6 721.7,68.2 726.3,56 C731,43.2 740.7,36 754.2,34 C760.6,33 767,33.2 773.3,34.7 C786.8,38.1 795.1,46.8 798.8,60 C799.3,61.8 799.7,63.7 799.8,65.8 C799.8,66.5333333 799.8,66.9 799.8,66.9 L799.8,67.7 Z M776.2,87.8 C777.4,83.7 777.9,79.4 777.6,75 C777.7,73.2 777.6,71.4 777.5,69.6 C777.3,65.7 776.3,61.8 774.6,58.3 C772.8,54.6 769.5,52 765.5,51.2 C763.6,50.8 761.7,50.8 759.8,51 C755.6,51.3 751.8,53.6 749.6,57.2 C748.4,59.2 747.4,61.5 746.9,63.8 C745.5,69.6 745.6,75.5 746.1,81.4 C746.4,84.8 747.3,88.2 748.8,91.3 C750.5,95.2 754,98 758.2,98.8 C760.1,99.2 762,99.2 763.9,99 C767.7,98.7 771.2,96.7 773.4,93.6 C774.7,91.8 775.6,89.9 776.2,87.8 Z M624.9,0.8 C627.9,0.8 628.7,1.5 628.8,4.6 L628.8,110 C628.7,112.9 627.9,113.8 625.1,113.8 C621.6,113.9 618.1,113.8 614.5,113.8 L612.1,113.8 C610.4,113.8 609,112.7 608.6,111.1 C608.4,109.9 608,108.7 607.5,107.6 C606.6,107.8 606.2,108.5 605.5,108.9 C596.2,115.8 586,117.5 575.1,114.1 C567.1,111.7 561.6,106.1 557.8,98.8 C554.5,92.2 552.8,84.9 552.8,77.5 C552.6,69.6 553.3,61.8 556.3,54.4 C559.4,46.7 564.2,40.2 571.9,36.6 C582.9,31.5 593.8,32.6 604.2,38.7 C604.9,39.1 605.4,39.7 606.3,39.8 C606.8,39.1 606.5,38.4 606.5,37.7 L606.5,5.3 C606.5,1.5 607.2,0.8 611,0.8 L624.9,0.8 Z M606.6,92.6 L606.6,74.4 C606.6,68.3 606.5,62.3 606.7,56.1 C606.8,54.8 606.1,53.6 604.9,53.2 C600.1,51 594.8,50 589.5,50.5 C585.1,50.8 581.1,53.3 579,57.2 C578.1,58.8 577.5,60.4 577,62.1 C575.5,68.2 575,74.6 575.8,80.9 C576.1,84.4 577,87.8 578.6,91 C580.7,95.1 584.7,97.9 589.3,98.4 C594.7,99.2 600.2,98.1 605,95.4 C606.1,94.9 606.8,93.8 606.6,92.6 Z M348,81.3 C347.1,81.1 346.1,81 345.2,80.9 C344.7,89.9 350.2,97.2 358.7,98.9 C364.9,100 371.3,100 377.5,98.7 C380.4,98.1 383.2,97.5 386.1,96.8 C389,96.1 390.2,97 390.2,100 C390.2,102.5 390.1,105 390.2,107.4 C390.3,110 389.1,111.4 386.8,112.3 C383,113.8 379,114.8 375,115.5 C367.4,116.7 359.7,117 352.1,115.3 C338.8,112.5 330,104.6 326.5,91.3 C323.8,80.9 323.4,70.4 326.7,60.1 C331.4,45 341.7,36.3 357.5,34.5 C364.2,33.6 371,34.3 377.4,36.4 C390.5,41.1 395.9,53.8 392.4,66.4 C391,71.4 387.7,75 383.2,77.6 C379.3,79.7 375.1,81 370.7,81.6 C363.2,82.8 355.5,82.7 348,81.3 Z M345.5,66 C345.3,67.6 345.3,67.6 346.8,67.8 C350.7,68.4 354.7,68.7 358.6,68.7 C360.8,68.9 363,68.7 365.1,68.2 C368.6,67.5 371.5,66 372.7,62.4 C373.2,60.7 373.3,58.9 373,57.2 C372.7,54.4 371,52 368.4,50.9 C366.7,50.2 364.9,49.8 363.1,49.7 C356.7,49.3 350.4,51.8 347.4,59.1 C346.5,61.3 345.8,63.6 345.5,66 Z M685.3,82.3 C678.6,82.8 671.9,82.3 665.3,81.1 C664.9,80.9 664.4,80.9 663.9,80.9 C664.1,83 664.5,85 665,87 C666.8,93.8 671.4,97.7 678.2,99 C685,100.2 692,99.9 698.7,98.3 C700.9,97.8 703,97.3 705.2,96.7 C708.1,96 709.3,97 709.4,99.9 L709.4,107.1 C709.4,110.2 708.7,111.2 705.8,112.3 C698.9,114.9 691.6,116.3 684.3,116.4 C679.3,116.6 674.2,116.1 669.3,114.9 C657.9,111.8 649.9,104.9 646.4,93.5 C643,82.4 642.5,71.1 646,60 C651.2,43.2 664,34.7 680.8,34.3 C685.8,34.1 690.9,34.7 695.7,36.2 C704.3,39.1 710,44.7 712.1,53.7 C712.9,57.3 712.9,61.1 712.2,64.7 C711.1,70.5 707.4,75.4 702.1,78 C696.9,80.8 691.1,81.9 685.3,82.3 Z M668.4,55.4 C666,58.6 665.1,62.4 664.4,66.3 C664.2,67.2 664.6,67.6 665.5,67.7 C669.5,68.3 673.5,68.6 677.6,68.7 C679.7,68.8 681.8,68.6 683.8,68.2 C687.5,67.5 690.8,66 691.8,62 C693.1,56.6 691.4,51 684.4,49.9 C683.9,49.9 683.5,49.7 683,49.7 C677.2,49.1 672.1,50.5 668.4,55.4 Z" id="Combined-Shape"></path>
        </g>
    </g>
</svg>