<?xml version="1.0" encoding="UTF-8"?>
<svg width="501px" height="180px" viewBox="0 0 501 180" version="1.1" xmlns="http://www.w3.org/2000/svg" xmlns:xlink="http://www.w3.org/1999/xlink">
    <!-- Generator: Sketch 50.2 (55047) - http://www.bohemiancoding.com/sketch -->
    <title>showtime</title>
    <desc>Created with Sketch.</desc>
    <defs></defs>
    <g id="Page-1" stroke="none" stroke-width="1" fill="none" fill-rule="evenodd">
        <g id="showtime" transform="translate(-1.000000, 0.000000)" fill="currentColor" fill-rule="nonzero">
            <path d="M127.83305,90.8342 C127.83305,54.9382 141.11605,32.3072 156.97505,29.9132 C141.11705,10.4242 114.63005,0.0002 90.57905,0.0002 C64.09305,0.0002 40.30505,11.4992 23.91805,29.7512 C39.55405,32.8542 44.86705,45.9772 44.86705,66.2752 L25.74305,66.2752 C25.74305,54.2892 23.24905,48.0842 16.15105,48.0842 C12.96505,48.0842 10.49205,49.7072 9.03205,52.4652 C8.82905,52.9112 8.60505,53.3782 8.40405,53.8442 C7.85505,55.3872 7.55105,57.1702 7.55105,59.1372 C7.55105,83.9602 48.31405,82.7232 48.31405,120.8892 C48.31405,135.7762 36.89705,149.6662 24.04005,149.6662 C40.93305,168.1212 64.01205,179.1742 90.57905,179.1742 C116.41505,179.1742 139.67705,168.2422 156.02105,150.7412 C140.95405,146.9482 127.83305,125.2672 127.83305,90.8342 Z M119.31405,149.9712 L98.81105,149.9712 L98.81105,98.9882 L76.66505,98.9882 L76.66505,149.9712 L56.12205,149.9712 L56.12205,32.3072 L76.62505,32.3072 L76.62505,79.7012 L98.81105,79.7012 L98.81105,32.3072 L119.31405,32.3072 L119.31405,149.9712 Z M18.70805,131.2432 C8.85105,131.2432 0.80005,113.9262 1.00305,87.9462 C15.21805,100.7832 28.48205,103.7032 28.48205,118.8922 C28.48205,126.2142 24.42705,131.2432 18.70805,131.2432 Z M148.20805,88.9352 C148.20805,69.1222 153.96805,49.3082 164.49305,49.3082 C177.00605,49.3082 180.17005,79.9312 180.17005,89.6032 C180.17005,110.8362 173.47805,129.9802 164.49305,129.9802 C153.70305,129.9822 148.20805,109.8052 148.20805,88.9352 Z M352.96705,33.9392 L357.85605,33.9392 L357.85605,148.4002 L336.94705,148.4002 L336.94705,51.6242 L317.82305,51.6242 L317.82305,148.4002 L296.91405,148.4002 L296.91405,51.6242 L279.18905,51.6242 L266.53505,148.4002 L247.57405,148.4002 L237.59505,75.9002 L237.29005,75.9002 L226.98805,148.4002 L208.67505,148.4002 L193.40405,33.9392 L212.36605,33.9392 L219.76805,101.1482 L220.09105,101.1482 L230.04905,33.9392 L248.85005,33.9392 L258.01705,101.1482 L258.34105,101.1482 L266.53405,33.9392 L278.90405,33.9392 L281.48005,33.9392 L336.94605,33.9392 L352.96705,33.9392 Z M368.11305,33.9392 L395.93605,33.9392 L405.24505,92.6092 L405.56905,92.6092 L415.38405,33.9392 L442.53805,33.9392 L442.53805,148.4002 L423.90005,148.4002 L423.90005,64.4822 L423.57605,64.4822 L409.42205,148.4002 L397.86205,148.4002 L383.86905,64.4822 L383.56405,64.4822 L383.56405,148.4002 L368.11205,148.4002 L368.11305,33.9392 Z M452.81305,33.9392 L500.08505,33.9392 L500.08505,51.6242 L473.72105,51.6242 L473.72105,80.8682 L493.15005,80.8682 L493.15005,99.5262 L473.72105,99.5262 L473.72105,130.7142 L501.20005,130.7142 L501.20005,148.4002 L452.81205,148.4002 L452.81205,33.9392 L452.81305,33.9392 Z" id="path37769_8_"></path>
        </g>
    </g>
</svg>