<?xml version="1.0" encoding="UTF-8"?>
<svg width="70px" height="20px" viewBox="0 0 70 20" version="1.1" xmlns="http://www.w3.org/2000/svg" xmlns:xlink="http://www.w3.org/1999/xlink">
    <!-- Generator: Sketch 50.2 (55047) - http://www.bohemiancoding.com/sketch -->
    <title>vimeo</title>
    <desc>Created with Sketch.</desc>
    <defs></defs>
    <g id="Page-1" stroke="none" stroke-width="1" fill="none" fill-rule="evenodd">
        <g id="vimeo" fill="currentColor" fill-rule="nonzero">
            <path d="M65.755,11.828 C65.778,11.198 65.691,10.621 65.493,10.096 C65.295,9.572 65.009,9.308 64.638,9.308 C63.45,9.308 62.472,9.95 61.705,11.233 C61.052,12.283 60.702,13.403 60.657,14.591 C60.633,15.175 60.738,15.689 60.971,16.131 C61.226,16.645 61.587,16.901 62.054,16.901 C63.101,16.901 63.998,16.284 64.743,15.047 C65.371,14.02 65.708,12.947 65.755,11.828 Z M69.701,11.96 C69.608,14.099 68.817,15.947 67.327,17.504 C65.837,19.061 63.985,19.84 61.774,19.84 C59.935,19.84 58.538,19.247 57.584,18.061 C56.886,17.178 56.501,16.074 56.432,14.75 C56.314,12.75 57.036,10.914 58.597,9.24 C60.273,7.381 62.379,6.451 64.917,6.451 C66.546,6.451 67.78,6.998 68.619,8.09 C69.411,9.09 69.771,10.38 69.701,11.96 Z M15.72,9.431 C15.651,10.945 14.593,13.019 12.548,15.651 C10.434,18.4 8.645,19.775 7.181,19.775 C6.275,19.775 5.508,18.938 4.881,17.263 C4.463,15.728 4.044,14.194 3.626,12.659 C3.161,10.985 2.662,10.147 2.128,10.147 C2.012,10.147 1.604,10.392 0.907,10.88 L0.176,9.937 C0.943,9.263 1.7,8.588 2.445,7.912 C3.469,7.028 4.237,6.562 4.75,6.515 C5.96,6.399 6.705,7.227 6.985,8.998 C7.287,10.91 7.496,12.099 7.613,12.564 C7.962,14.15 8.346,14.942 8.765,14.942 C9.091,14.942 9.58,14.427 10.232,13.399 C10.883,12.37 11.232,11.587 11.279,11.05 C11.372,10.162 11.023,9.717 10.232,9.717 C9.859,9.717 9.475,9.802 9.081,9.972 C9.845,7.468 11.305,6.251 13.461,6.32 C15.059,6.367 15.812,7.404 15.72,9.431 Z M22.281,1.918 C22.258,2.498 21.967,3.054 21.407,3.587 C20.779,4.189 20.034,4.49 19.173,4.49 C17.846,4.49 17.205,3.911 17.252,2.753 C17.274,2.151 17.63,1.571 18.316,1.015 C19.003,0.46 19.765,0.181 20.604,0.181 C21.093,0.181 21.5,0.373 21.827,0.755 C22.152,1.137 22.304,1.525 22.281,1.918 Z M23.0323865,17.3188504 C22.9018246,17.4429352 22.7676964,17.5653196 22.63,17.686 C21.07,19.035 19.511,19.71 17.951,19.71 C17.228,19.71 16.676,19.477 16.292,19.011 C15.908,18.546 15.727,17.942 15.751,17.197 C15.773,16.43 16.012,15.243 16.466,13.637 C16.92,12.032 17.148,11.171 17.148,11.055 C17.148,10.45 16.938,10.147 16.519,10.147 C16.38,10.147 15.983,10.392 15.331,10.88 L14.528,9.937 C15.273,9.263 16.018,8.588 16.763,7.912 C17.764,7.028 18.509,6.562 18.999,6.515 C19.767,6.446 20.331,6.672 20.692,7.194 C21.052,7.717 21.186,8.394 21.094,9.229 C20.791,10.644 20.465,12.441 20.116,14.621 C20.092,15.619 20.453,16.117 21.198,16.117 C21.524,16.117 22.106,15.773 22.944,15.084 C22.9539884,15.0757978 22.9639505,15.0676025 22.9738863,15.0594141 C23.0276748,14.5728548 23.1148572,13.9945575 23.234,13.325 C23.426,12.245 23.533,11.404 23.555,10.8 C23.605,10.383 23.495,10.173 23.241,10.173 C23.101,10.173 22.705,10.409 22.053,10.88 L21.215,9.937 C21.332,9.845 22.064,9.169 23.415,7.912 C24.393,7.005 25.056,6.539 25.405,6.516 C26.011,6.469 26.499,6.719 26.872,7.266 C27.244,7.813 27.431,8.448 27.431,9.169 C27.431,9.402 27.411,9.623 27.361,9.833 C27.71,9.298 28.117,8.831 28.583,8.435 C29.654,7.505 30.853,6.98 32.18,6.864 C33.321,6.771 34.135,7.038 34.625,7.667 C35.02,8.179 35.206,8.913 35.183,9.867 C35.346,9.728 35.521,9.576 35.708,9.413 C36.242,8.785 36.766,8.285 37.278,7.912 C38.139,7.283 39.037,6.934 39.967,6.864 C41.085,6.771 41.888,7.037 42.377,7.664 C42.795,8.174 42.982,8.905 42.936,9.855 C42.912,10.505 42.755,11.45 42.464,12.691 C42.172,13.932 42.028,14.644 42.028,14.83 C42.004,15.318 42.051,15.654 42.167,15.839 C42.284,16.025 42.562,16.117 43.005,16.117 C43.331,16.117 43.912,15.773 44.751,15.083 C45.449,14.51 46.02,13.97 46.463,13.464 L47.127,14.336 C46.475,15.569 45.579,16.685 44.438,17.685 C42.878,19.034 41.318,19.709 39.759,19.709 C38.245,19.709 37.512,18.872 37.559,17.196 C37.581,16.451 37.727,15.557 37.995,14.51 C38.262,13.462 38.408,12.648 38.431,12.066 C38.455,11.183 38.186,10.74 37.625,10.74 C37.018,10.74 36.294,11.462 35.453,12.905 C34.566,14.419 34.086,15.885 34.017,17.305 C33.967,18.307 34.067,19.075 34.31,19.61 C32.686,19.657 31.548,19.389 30.899,18.807 C30.317,18.295 30.051,17.446 30.098,16.258 C30.118,15.513 30.234,14.768 30.441,14.023 C30.646,13.278 30.76,12.615 30.783,12.032 C30.833,11.171 30.515,10.74 29.839,10.74 C29.256,10.74 28.626,11.404 27.951,12.731 C27.275,14.057 26.902,15.443 26.832,16.886 C26.782,18.191 26.872,19.098 27.082,19.61 C25.484,19.657 24.349,19.32 23.678,18.6 C23.3708559,18.2680863 23.1558182,17.8410364 23.0323865,17.3188504 Z M52.295,10.654 C52.317,10.029 52.062,9.716 51.528,9.716 C50.83,9.716 50.121,10.197 49.401,11.158 C48.68,12.119 48.308,13.04 48.285,13.92 C48.272,13.92 48.272,14.071 48.285,14.372 C49.424,13.955 50.412,13.319 51.249,12.461 C51.923,11.72 52.271,11.117 52.295,10.654 Z M60.222,14.3 C59.547,15.417 58.22,16.532 56.241,17.648 C53.774,19.066 51.27,19.774 48.733,19.774 C46.848,19.774 45.496,19.146 44.682,17.889 C44.1,17.028 43.821,16.004 43.844,14.817 C43.867,12.932 44.706,11.14 46.359,9.44 C48.174,7.578 50.316,6.646 52.784,6.646 C55.066,6.646 56.276,7.576 56.416,9.433 C56.509,10.617 55.857,11.837 54.46,13.091 C52.97,14.462 51.095,15.332 48.838,15.703 C49.256,16.284 49.884,16.574 50.723,16.574 C52.399,16.574 54.227,16.148 56.206,15.295 C57.626,14.696 58.744,14.074 59.559,13.429 L60.222,14.3 Z" id="path12"></path>
        </g>
    </g>
</svg>