<?xml version="1.0" encoding="UTF-8"?>
<svg width="490px" height="110px" viewBox="0 0 490 110" version="1.1" xmlns="http://www.w3.org/2000/svg" xmlns:xlink="http://www.w3.org/1999/xlink">
    <!-- Generator: Sketch 50.2 (55047) - http://www.bohemiancoding.com/sketch -->
    <title>youtube</title>
    <desc>Created with Sketch.</desc>
    <defs></defs>
    <g id="Page-1" stroke="none" stroke-width="1" fill="none" fill-rule="evenodd">
        <g id="youtube" fill="currentColor" fill-rule="nonzero">
            <path d="M226.9,99.7 C223.8,97.6 221.6,94.4 220.3,90 C219,85.6 218.4,79.8 218.4,72.5 L218.4,62.6 C218.4,55.3 219.1,49.3 220.6,44.9 C222.1,40.4 224.4,37.2 227.6,35.2 C230.8,33.2 234.9,32.1 240,32.1 C245,32.1 249.1,33.1 252.1,35.2 C255.1,37.3 257.4,40.5 258.8,44.9 C260.2,49.3 260.9,55.2 260.9,62.5 L260.9,72.4 C260.9,79.7 260.2,85.5 258.8,89.9 C257.4,94.3 255.2,97.5 252.1,99.6 C249,101.6 244.8,102.7 239.6,102.7 C234.2,102.8 230,101.7 226.9,99.7 Z M244.2,89 C245.1,86.8 245.5,83.1 245.5,78.1 L245.5,56.8 C245.5,51.9 245.1,48.3 244.2,46.1 C243.3,43.8 241.8,42.7 239.7,42.7 C237.6,42.7 236.2,43.8 235.3,46.1 C234.4,48.4 234,51.9 234,56.8 L234,78.1 C234,83.1 234.4,86.8 235.2,89 C236,91.2 237.5,92.3 239.7,92.3 C241.8,92.3 243.3,91.2 244.2,89 Z M463.4,72.7 L463.4,76.2 L463.8,86.1 C464.1,88.3 464.6,89.9 465.4,90.9 C466.2,91.9 467.5,92.4 469.2,92.4 C471.5,92.4 473.1,91.5 473.9,89.7 C474.8,87.9 475.2,84.9 475.3,80.8 L488.6,81.6 C488.7,82.2 488.7,83 488.7,84 C488.7,90.3 487,95 483.5,98.1 C480,101.2 475.2,102.8 468.9,102.8 C461.3,102.8 456,100.4 453,95.7 C450,91 448.4,83.6 448.4,73.7 L448.4,61.6 C448.74,44.6 451.73,32.15 469.3,32.1 C474.6,32.1 478.6,33.1 481.4,35 C484.2,36.9 486.2,39.9 487.4,44 C488.6,48.1 489.1,53.7 489.1,60.9 L489.1,72.6 L463.4,72.6 L463.4,72.7 Z M465.4,43.9 C464.6,44.9 464.1,46.4 463.8,48.6 C463.5,50.8 463.4,58.6 463.4,58.6 L463.4,63.5 L474.6,63.5 L474.6,58.6 C474.6,63.5 474.5,50.9 474.2,48.6 C473.9,46.3 473.4,44.7 472.6,43.8 C471.8,42.9 470.6,42.4 469,42.4 C467.3,42.5 466.1,43 465.4,43.9 Z M189.5,71.4 L172,8.2 L187.3,8.2 C187.3,8.2 194.45,39.9 196.9,54.8 L197.3,54.8 C200.08,38.98 207.1,8.2 207.1,8.2 L222.4,8.2 L204.7,71.3 L204.7,101.6 L189.6,101.6 L189.6,71.4 L189.5,71.4 Z M310.5,33.4 L310.5,101.7 L298.5,101.7 L297.2,93.3 L296.9,93.3 C293.6,99.6 288.7,102.8 282.2,102.8 C270.43,102.77 269.12,92.8 269,84.4 L269,33.4 L284.4,33.4 L284.4,83.5 C284.4,86.5 284.7,88.7 285.4,90 C286.82,92.78 290.5,92.07 292.5,90.7 C293.654667,89.9194973 294.585397,88.8508814 295.2,87.6 L295.2,33.4 L310.5,33.4 Z M352.3,20.6 L337,20.6 L337,101.7 L322,101.7 L322,20.6 L306.7,20.6 L306.7,8.2 L352.2,8.2 L352.2,20.6 L352.3,20.6 Z M440.2,44.3 C439.3,40 437.8,36.9 435.7,34.9 C433.6,33 430.8,32 427.1,32 C424.286183,31.993809 421.534868,32.8296515 419.2,34.4 C416.7,36 414.9,38.1 413.5,40.7 L413.4,40.7 L413.4,4.7 L398.6,4.7 L398.6,101.6 L411.3,101.6 L412.9,95.1 L413.2,95.1 C414.42274,97.3891367 416.257704,99.2933447 418.5,100.6 C420.9,101.9 423.5,102.6 426.4,102.6 C431.6,102.6 435.4,100.2 437.9,95.4 C440.3,90.6 441.6,83.1 441.6,73 L441.6,62.2 C441.6,54.6 441.1,48.6 440.2,44.3 Z M426.1,72.2 C426.1,77.2 425.9,81.1 425.5,83.9 C425.1,86.7 424.4,88.7 423.4,89.9 C422.4,91.1 421.1,91.7 419.5,91.7 C416.4,91.6 414.64,90.2 413.4,88.1 L413.4,49.3 C413.9,47.4 414.8,45.9 416.1,44.7 C418.3,42.23 422.06,42.2 423.8,44.7 C424.7,45.9 425.2,48 425.6,50.9 C425.9,53.8 426.1,57.9 426.1,63.3 L426.1,72.2 Z M389.4,33.4 L389.4,101.7 L377.4,101.7 L376.1,93.3 L375.8,93.3 C372.5,99.6 367.6,102.8 361.1,102.8 C349.33,102.77 348.02,92.8 347.9,84.4 L347.9,33.4 L363.3,33.4 L363.3,83.5 C363.3,86.5 363.6,88.7 364.3,90 C365.72,92.78 369.4,92.07 371.4,90.7 C372.554667,89.9194973 373.485397,88.8508814 374.1,87.6 L374.1,33.4 L389.4,33.4 Z M153.3,17.5 C158.45,38.23 157.26,70.97 153.4,92.5 C151.579981,99.2259538 146.325954,104.479981 139.6,106.3 C127.5,109.6 78.8,109.6 78.8,109.6 C78.8,109.6 30.1,109.6 18,106.3 C11.2740462,104.479981 6.0200191,99.2259538 4.2,92.5 C-0.98,71.86 0.44,39.1 4.1,17.6 C5.9200191,10.8740462 11.1740462,5.6200191 17.9,3.8 C30,0.5 78.7,0.4 78.7,0.4 C78.7,0.4 127.4,0.4 139.5,3.7 C146.225954,5.5200191 151.479981,10.7740462 153.3,17.5 Z M63.2,78.4 L103.6,55 L63.2,31.6 L63.2,78.4 Z" id="Shape"></path>
        </g>
    </g>
</svg>